<?xml version="1.0"?>
<svg version="1.1" xmlns="http://www.w3.org/2000/svg" width="400" height="150" style=""><path fill="#ffffff" d="M16.92,99.08l19.56,0l0-2.04l-17.08,0l0-26.04l-2.48,0l0,28.08z M51.5936,70.84q-4.48,0-7.52,3.24q-3,3.2-3,7.8l0,17.12l2.52,0l0-12.56l16.08,0l0,12.56l2.52,0l0-17.12q0-4.6-3-7.8q-3.12-3.24-7.6-3.24z M59.6736,83.96l-16.08,0l0-2.08q0-3.44,2.32-5.96q2.36-2.56,5.68-2.56t5.76,2.56q2.32,2.52,2.32,5.96l0,2.08z M68.2672,99l2.48,0l0-16.96q0-3.36,2.56-6q2.56-2.56,5.92-2.56t6,2.56q2.56,2.64,2.56,6l0,16.96l2.48,0l0-16.96q0-4.56-3.24-7.8t-7.8-3.24q-4.48,0-7.72,3.24t-3.24,7.8l0,16.96z M109.6608,73.4l7.72,0l0-2.52l-7.72,0q-5.76,0-9.76,4.08q-4.04,4.12-4.04,10.28q0,5.72,4.04,9.76t9.76,4.04l5.12,0l2.6,0l0-2.56l0-12.8l-2.6,0l-6.12,0l0,2.56l6.12,0l0,10.24l-5.12,0q-4.56,0-7.88-3.32t-3.32-7.92q0-5,3.32-8.44q3.28-3.4,7.88-3.4z M145.3744,70.96l-2.52,0l0,17.08q0,3.68-2.56,6.16q-2.52,2.4-6,2.4q-3.8,0-6.12-2.4q-2.36-2.44-2.36-6.16l0-17.08l-2.56,0l0,17.08q0,4.56,3.12,7.76q3.16,3.28,7.92,3.28q4.44,0,7.8-3.28q3.28-3.2,3.28-7.76l0-17.08z M161.928,70.84q-4.48,0-7.52,3.24q-3,3.2-3,7.8l0,17.12l2.52,0l0-12.56l16.08,0l0,12.56l2.52,0l0-17.12q0-4.6-3-7.8q-3.12-3.24-7.6-3.24z M170.008,83.96l-16.08,0l0-2.08q0-3.44,2.32-5.96q2.36-2.56,5.68-2.56t5.76,2.56q2.32,2.52,2.32,5.96l0,2.08z M191.9616,73.4l7.72,0l0-2.52l-7.72,0q-5.76,0-9.76,4.08q-4.04,4.12-4.04,10.28q0,5.72,4.04,9.76t9.76,4.04l5.12,0l2.6,0l0-2.56l0-12.8l-2.6,0l-6.12,0l0,2.56l6.12,0l0,10.24l-5.12,0q-4.56,0-7.88-3.32t-3.32-7.92q0-5,3.32-8.44q3.28-3.4,7.88-3.4z M207.9552,91.32q0-1.92,1.36-3.48q1.36-1.64,3.28-1.64l0.52,0l7.48,0l0-2.48l-7.48,0l-0.52,0q-2.04-0.4-3.34-1.76t-1.3-3.24q0-2.36,1.38-3.74t3.78-1.38l13.6,0l0-2.52l-13.6,0q-3.08,0-5.36,2.28q-2.28,2.2-2.28,5.36q0,2,0.76,3.64t2.24,2.36q-1.48,1.08-2.24,2.84t-0.76,3.76q0,3.12,2.28,5.32q2.32,2.32,5.36,2.32l13.6,0l0-2.64l-13.6,0q-2.4,0-3.78-1.36t-1.38-3.64z M247.9424,91.32q0-1.92,1.36-3.48q1.36-1.64,3.28-1.64l0.52,0l7.48,0l0-2.48l-7.48,0l-0.52,0q-2.04-0.4-3.34-1.76t-1.3-3.24q0-2.36,1.38-3.74t3.78-1.38l13.6,0l0-2.52l-13.6,0q-3.08,0-5.36,2.28q-2.28,2.2-2.28,5.36q0,2,0.76,3.64t2.24,2.36q-1.48,1.08-2.24,2.84t-0.76,3.76q0,3.12,2.28,5.32q2.32,2.32,5.36,2.32l13.6,0l0-2.64l-13.6,0q-2.4,0-3.78-1.36t-1.38-3.64z M284.696,85.04l9.52-14.08l-3.04,0l-8,12l-8.48-12l-2.56,0l9.52,14.08l-10,14l3.04,0l8.48-12l8,12l2.56,0z M315.3296,71l-12.56,0l-2.48,0l0,28.12l2.48,0l0-14.08l12.56,0q3.04,0,5.04-2t2-5q0-2.72-2-4.84q-2.12-2.2-5.04-2.2z M315.3296,82.56l-12.56,0l0-9.08l12.56,0q1.84,0,3.24,1.32q1.32,1.4,1.32,3.24q0,1.88-1.32,3.2q-1.4,1.32-3.24,1.32z M329.5232,91.32q0-1.92,1.36-3.48q1.36-1.64,3.28-1.64l0.52,0l7.48,0l0-2.48l-7.48,0l-0.52,0q-2.04-0.4-3.34-1.76t-1.3-3.24q0-2.36,1.38-3.74t3.78-1.38l13.6,0l0-2.52l-13.6,0q-3.08,0-5.36,2.28q-2.28,2.2-2.28,5.36q0,2,0.76,3.64t2.24,2.36q-1.48,1.08-2.24,2.84t-0.76,3.76q0,3.12,2.28,5.32q2.32,2.32,5.36,2.32l13.6,0l0-2.64l-13.6,0q-2.4,0-3.78-1.36t-1.38-3.64z M365.5168,84.96l3,0q3.04,0,5.04-2t2-5.04q0-2.68-2-4.8q-2.12-2.2-5.04-2.2l-12.52,0l-2.48,0l0,28.08l2.48,0l0-14.04l6.52,0l8.52,14.04l3,0z M355.9968,82.48l0-9.04l12.52,0q1.84,0,3.24,1.32q1.32,1.32,1.32,3.16q0,1.92-1.32,3.24q-1.4,1.32-3.24,1.32l-12.52,0z M401.8704,71l-21.68,0l0,2.44l9.84,0l0,25.64l2.48,0l0-25.64l9.36,0l0-2.44z M413.304,73.92l15.08,0l0-3.04l-15.08,0q-2.96,0-4.96,2.32q-2.04,2.36-2.04,5.72q0,3.04,2.04,5.28q2,2.28,4.96,2.28l4,0l4.08,0q1.8,0,3.2,1.52q1.32,1.6,1.32,3.48q0,2.24-1.3,3.64t-3.22,1.4l-15.08,0l0,2.48l15.08,0q3,0,5-2.08t2-5.44q0-3.04-2-5.28q-2.04-2.24-5-2.24l-4.08,0l-4,0q-1.84,0-3.16-1.6q-1.36-1.48-1.36-3.44q0-2.24,1.3-3.62t3.22-1.38z M469.6912,70.96l-2.52,0l0,17.08q0,3.68-2.56,6.16q-2.52,2.4-6,2.4q-3.8,0-6.12-2.4q-2.36-2.44-2.36-6.16l0-17.08l-2.56,0l0,17.08q0,4.56,3.12,7.76q3.16,3.28,7.92,3.28q4.44,0,7.8-3.28q3.28-3.2,3.28-7.76l0-17.08z M494.1648,99l4.04,0l-17.88-14.28l17.88-13.76l-4.04,0l-15.36,12.24l0-12.24l-2.52,0l0,28.04l2.52,0l0-12.24z"/><path fill="#" d=""/></svg>
