<?xml version="1.0" encoding="UTF-8" standalone="yes"?>
<!DOCTYPE svg PUBLIC "-//W3C//DTD SVG 1.1//EN" "http://www.w3.org/Graphics/SVG/1.1/DTD/svg11.dtd">

<svg width="380" height="250" viewBox="0 0 380 250" xmlns="http://www.w3.org/2000/svg" xmlns:xlink="http://www.w3.org/1999/xlink" version="1.1" baseProfile="full">
    <g transform="scale(1,-1) translate(0,-250)">
        <path d="M 34.850251 10.439000 L 47.900451 10.439000 L 47.900451 13.400100 L 14.900051 13.400100 L 14.900051 30.700400 L 43.000251 30.700400 L 43.000251 43.100600 L 14.900051 43.100600 L 14.900051 59.800900 L 47.900451 59.800900 L 47.900451 72.201100 L 0.999951 72.201100 L 0.999951 10.439000 L 14.150051 10.439000 L 14.150051 1.000000 L 34.850251 1.000000 Z" transform="scale(1.000000,1.000000) translate(20.780249,80.950300)" fill="#ffffff" opacity="1.000000"></path>
        <path d="M 53.400525 26.000402 Q 53.400525 14.900224 45.800449 7.800109 Q 38.400375 1.000000 27.200263 1.000000 Q 16.000150 1.000000 8.600076 7.800109 Q 1.000000 14.900224 1.000000 26.000402 L 1.000000 72.801155 L 14.900139 72.801155 L 14.900139 26.500410 Q 14.900139 20.400312 18.200172 16.900256 Q 21.500206 13.400199 27.200263 13.400199 Q 32.900320 13.400199 36.200353 16.900256 Q 39.600387 20.400312 39.600387 26.500410 L 39.600387 72.801155 L 53.400525 72.801155 Z" transform="scale(1.000000,1.000000) translate(18.030221,16.596261)" fill="#ffffff" opacity="1.000000"></path>
        <path d="M 1.000000 1.000000 L 1.000000 72.201145 L 14.900139 72.201145 L 14.900139 13.400199 L 47.200463 13.400199 L 47.200463 1.000000 Z" transform="scale(1.000000,1.000000) translate(21.130252,160.210562)" fill="#ffffff" opacity="1.000000"></path>
        <path d="M 32.900320 1.000000 L 18.700177 24.400376 L 11.200102 15.900240 L 11.200102 1.000000 L 1.000000 1.000000 L 1.000000 72.201145 L 11.200102 72.201145 L 11.200102 28.300439 L 30.900300 51.700816 L 43.300424 51.700816 L 25.700248 31.800495 L 45.500446 1.000000 Z" transform="scale(1.000000,1.000000) translate(77.478871,17.196271)" fill="#ffffff" opacity="1.000000"></path>
        <path d="M 6.434625 47.963646 L 6.434625 35.316958 Q 6.434625 32.616720 8.382887 30.634266 Q 10.365328 28.685992 13.065551 28.685992 L 27.352803 28.685992 Q 29.984666 28.685992 32.069647 30.634266 Q 34.017909 32.616720 34.017909 35.316958 L 34.017909 47.963646 L 35.829451 47.963646 L 35.829451 35.316958 Q 35.829451 31.898935 33.334309 29.369597 Q 32.445628 28.480911 30.975886 27.899847 Q 32.103827 27.352963 33.334309 26.225015 Q 35.829451 23.661497 35.829451 20.277654 L 35.829451 7.801867 L 34.017909 7.801867 L 34.017909 20.277654 Q 34.017909 23.012073 32.069647 24.926166 Q 30.121386 26.874440 27.352803 26.874440 L 13.065551 26.874440 Q 10.262788 26.874440 8.382887 24.926166 Q 6.434625 23.012073 6.434625 20.277654 L 6.434625 7.801867 L 4.623083 7.801867 L 4.623083 20.277654 Q 4.623083 23.729858 7.118225 26.225015 Q 8.177806 27.284602 9.408287 28.002387 Q 7.972726 28.480911 7.118225 29.369597 Q 4.623083 31.864754 4.623083 35.316958 L 4.623083 47.963646 Z M 36.752312 28.002387 Q 39.418354 24.584364 39.418354 20.448555 L 39.418354 7.801867 L 37.606812 7.801867 L 37.606812 20.448555 Q 37.606812 24.652724 34.291349 27.934027 Q 37.606812 31.317871 37.606812 35.487859 L 37.606812 47.963646 L 39.418354 47.963646 L 39.418354 35.487859 Q 39.418354 31.317871 36.752312 28.002387 Z M 1.000000 7.801867 L 1.000000 20.448555 Q 1.000000 24.584364 3.666042 28.002387 Q 1.000000 31.317871 1.000000 35.487859 L 1.000000 47.963646 L 2.811542 47.963646 L 2.811542 35.487859 Q 2.811542 31.317871 6.127005 28.002387 Q 6.024464 27.899847 4.418003 26.276285 Q 2.811542 24.652724 2.811542 20.448555 L 2.811542 7.801867 Z M 27.352803 25.302149 Q 29.369425 25.302149 30.770806 23.866579 Q 32.206368 22.465189 32.206368 20.482735 L 32.206368 7.801867 L 30.394826 7.801867 L 30.394826 20.448555 Q 30.394826 21.679044 29.506145 22.567730 Q 28.514924 23.490596 27.352803 23.490596 L 13.065551 23.490596 Q 11.869250 23.490596 10.946389 22.567730 Q 10.023528 21.679044 10.023528 20.448555 L 10.023528 7.801867 L 8.211986 7.801867 L 8.211986 20.482735 Q 8.211986 22.431009 9.647548 23.866579 Q 11.083109 25.302149 13.065551 25.302149 Z M 8.211986 47.963646 L 10.023528 47.963646 L 10.023528 35.522040 Q 10.023528 34.257371 10.946389 33.402865 Q 11.835070 32.514179 13.065551 32.514179 L 27.352803 32.514179 Q 28.549104 32.514179 29.506145 33.402865 Q 30.394826 34.291551 30.394826 35.522040 L 30.394826 47.963646 L 32.206368 47.963646 L 32.206368 35.487859 Q 32.206368 33.539586 30.770806 32.104016 Q 29.403605 30.702626 27.352803 30.702626 L 13.065551 30.702626 Q 11.048929 30.702626 9.647548 32.104016 Q 8.211986 33.573766 8.211986 35.487859 Z M 54.901908 40.785796 L 69.189160 40.785796 Q 71.274142 40.785796 72.607163 39.350226 Q 74.042725 37.948837 74.042725 35.966383 L 73.974364 19.867491 Q 73.974364 17.850857 72.572983 16.449467 Q 71.137422 15.013897 69.154980 15.013897 L 54.867728 15.013897 L 54.867728 16.825450 L 69.154980 16.825450 Q 70.385461 16.825450 71.274142 17.714136 Q 72.162823 18.602822 72.162823 19.867491 L 72.231183 35.932203 Q 72.231183 37.128511 71.342502 38.085557 Q 70.385461 38.974244 69.189160 38.974244 L 54.901908 38.974244 Q 53.671427 38.974244 52.782746 38.085557 Q 51.859885 37.162691 51.859885 35.932203 L 51.859885 1.000000 L 50.048343 1.000000 L 50.048343 35.966383 Q 50.048343 37.914656 51.483905 39.350226 Q 52.851106 40.785796 54.901908 40.785796 Z M 54.901908 42.392267 Q 52.167505 42.392267 50.219243 40.443994 Q 48.270982 38.495720 48.270982 35.761301 L 48.270982 1.000000 L 46.459440 1.000000 L 46.459440 35.761301 Q 46.459440 39.213505 48.954582 41.708663 Q 51.449725 44.203820 54.901908 44.203820 L 69.189160 44.203820 Q 72.675523 44.203820 75.170666 41.708663 Q 77.665808 39.145145 77.665808 35.761301 L 77.665808 19.867491 Q 77.665808 16.415287 75.170666 13.885949 Q 72.675523 11.390792 69.189160 11.390792 L 54.901908 11.390792 L 54.901908 13.202345 L 69.189160 13.202345 Q 71.889383 13.202345 73.906004 15.150618 Q 75.854266 17.133072 75.854266 19.867491 L 75.854266 35.761301 Q 75.854266 38.495720 73.906004 40.443994 Q 71.889383 42.392267 69.189160 42.392267 Z M 69.189160 47.963646 Q 74.213625 47.963646 77.734168 44.443082 Q 81.254711 40.854157 81.254711 35.932203 L 81.254711 19.867491 Q 81.254711 14.877176 77.734168 11.322432 Q 74.145265 7.801867 69.189160 7.801867 L 54.901908 7.801867 L 54.901908 9.613420 L 69.189160 9.613420 Q 73.461664 9.613420 76.435327 12.621281 Q 79.443169 15.629142 79.443169 19.867491 L 79.443169 35.898022 Q 79.443169 40.102191 76.435327 43.110052 Q 73.427484 46.152093 69.189160 46.152093 L 54.901908 46.152093 Q 50.629404 46.152093 47.655741 43.110052 Q 44.647899 40.102191 44.647899 35.898022 L 44.647899 1.000000 L 42.836357 1.000000 L 42.836357 35.932203 Q 42.836357 40.888337 46.391080 44.443082 Q 49.911623 47.963646 54.901908 47.963646 Z M 111.093877 42.563169 L 96.806625 42.563169 Q 94.003862 42.563169 92.123961 40.614895 Q 90.209879 38.700802 90.209879 35.932203 L 90.141519 19.867491 Q 90.141519 17.133072 92.089780 15.150618 Q 94.038042 13.202345 96.772445 13.202345 L 111.025517 13.202345 Q 113.725740 13.202345 115.742361 15.150618 Q 117.690623 17.133072 117.690623 19.867491 L 119.536345 19.867491 Q 119.536345 16.415287 117.041203 13.885949 Q 114.546060 11.390792 111.059697 11.390792 L 96.738265 11.390792 Q 93.286082 11.390792 90.790939 13.885949 Q 88.295797 16.381107 88.295797 19.867491 L 88.364157 35.932203 Q 88.364157 39.452767 90.825119 41.913744 Q 93.320262 44.374721 96.772445 44.374721 L 111.128057 44.374721 Q 114.614420 44.374721 117.075383 41.913744 Q 119.570525 39.418587 119.570525 35.932203 L 119.536345 34.257371 Q 119.536345 31.283690 117.400093 29.181606 Q 115.263841 27.079521 112.290178 27.079521 L 96.738265 27.079521 L 96.738265 28.891074 L 112.290178 28.891074 Q 114.511880 28.891074 116.101252 30.446274 Q 117.690623 32.001475 117.690623 34.257371 L 117.724803 35.932203 Q 117.724803 38.666622 115.776541 40.614895 Q 113.828280 42.563169 111.093877 42.563169 Z M 123.091068 35.932203 L 123.091068 34.291551 Q 123.091068 29.813940 119.912325 26.652268 Q 116.733582 23.490596 112.255998 23.490596 L 96.738265 23.490596 L 96.738265 25.302149 L 112.255998 25.302149 Q 115.947442 25.302149 118.613484 27.934027 Q 121.279526 30.565905 121.279526 34.291551 L 121.279526 35.932203 Q 121.279526 40.136372 118.271684 43.110052 Q 115.263841 46.152093 111.025517 46.152093 L 96.738265 46.152093 Q 92.465761 46.152093 89.492098 43.110052 Q 86.484256 40.102191 86.484256 35.898022 L 86.586796 19.867491 Q 86.586796 15.629142 89.594638 12.621281 Q 92.602481 9.613420 96.840805 9.613420 L 111.162237 9.613420 Q 115.366381 9.613420 118.374224 12.621281 Q 121.382066 15.629142 121.382066 19.867491 L 123.193608 19.867491 Q 123.193608 14.911357 119.638885 11.356612 Q 116.118342 7.801867 111.162237 7.801867 L 96.840805 7.801867 Q 91.884700 7.801867 88.329977 11.356612 Q 84.809434 14.877176 84.809434 19.867491 L 84.672714 35.932203 Q 84.672714 40.888337 88.227437 44.443082 Q 91.747980 47.963646 96.738265 47.963646 L 111.025517 47.963646 Q 116.049982 47.963646 119.570525 44.443082 Q 123.091068 40.854157 123.091068 35.932203 Z M 115.879082 35.966383 L 115.879082 34.291551 Q 115.879082 30.702626 112.255998 30.702626 L 96.738265 30.702626 L 96.738265 32.514179 L 112.255998 32.514179 Q 114.067540 32.514179 114.067540 34.325731 L 114.067540 35.932203 Q 114.067540 37.128511 113.178859 38.085557 Q 112.221818 38.974244 111.025517 38.974244 L 96.738265 38.974244 Q 95.507784 38.974244 94.619103 38.085557 Q 93.696242 37.162691 93.696242 35.932203 L 93.764602 19.867491 Q 93.764602 18.602822 94.653283 17.714136 Q 95.541964 16.825450 96.772445 16.825450 L 111.093877 16.825450 Q 112.324358 16.825450 113.213039 17.714136 Q 114.101720 18.602822 114.101720 19.867491 L 115.913262 19.867491 Q 115.913262 17.816677 114.477700 16.449467 Q 113.076319 15.013897 111.093877 15.013897 L 96.772445 15.013897 Q 94.824183 15.013897 93.354442 16.449467 Q 91.953060 17.850857 91.953060 19.867491 L 91.884700 35.966383 Q 91.884700 37.914656 93.320262 39.350226 Q 94.687463 40.785796 96.738265 40.785796 L 111.025517 40.785796 Q 113.110499 40.785796 114.443520 39.350226 Q 115.879082 37.948837 115.879082 35.966383 Z M 152.964414 42.563169 L 138.677162 42.563169 Q 135.874399 42.563169 133.994498 40.614895 Q 132.046236 38.666622 132.046236 35.932203 L 132.114596 7.801867 L 130.303054 7.801867 L 130.234694 35.932203 Q 130.234694 39.418587 132.729836 41.913744 Q 135.224979 44.374721 138.677162 44.374721 L 152.964414 44.374721 Z M 138.677162 47.963646 L 152.964414 47.963646 L 152.964414 46.152093 L 138.677162 46.152093 Q 134.404658 46.152093 131.430995 43.110052 Q 128.423153 40.102191 128.423153 35.898022 L 128.491513 7.801867 L 126.679971 7.801867 L 126.611611 35.932203 Q 126.611611 40.888337 130.166334 44.443082 Q 133.686877 47.963646 138.677162 47.963646 Z M 152.964414 40.785796 L 152.964414 38.974244 L 138.677162 38.974244 Q 137.446681 38.974244 136.558000 38.085557 Q 135.635139 37.162691 135.635139 35.932203 L 135.703499 7.801867 L 133.891957 7.801867 L 133.823597 35.966383 Q 133.823597 37.914656 135.259159 39.350226 Q 136.626360 40.785796 138.677162 40.785796 Z M 171.182370 44.374721 L 171.182370 42.563169 L 161.817042 42.563169 L 161.817042 19.867491 Q 161.817042 17.133072 163.765304 15.150618 Q 165.713566 13.202345 168.447968 13.202345 L 171.182370 13.202345 L 171.182370 11.390792 L 168.447968 11.390792 Q 164.995785 11.390792 162.500643 13.885949 Q 160.005500 16.381107 160.005500 19.867491 L 160.005500 55.175676 L 161.817042 55.175676 L 161.817042 44.374721 Z M 158.193959 55.175676 L 158.262319 19.867491 Q 158.262319 15.594961 161.270162 12.655461 Q 164.243824 9.613420 168.482148 9.613420 L 171.216550 9.613420 L 171.216550 7.801867 L 168.482148 7.801867 Q 163.526044 7.801867 160.005500 11.322432 Q 156.450777 14.877176 156.450777 19.833311 L 156.382417 55.175676 Z M 163.594404 55.175676 L 165.405945 55.175676 L 165.405945 47.963646 L 171.182370 47.963646 L 171.182370 46.152093 L 163.594404 46.186274 Z M 163.594404 19.867491 L 163.594404 40.785796 L 171.182370 40.785796 L 171.182370 38.974244 L 165.405945 38.974244 L 165.405945 19.867491 Q 165.405945 18.568642 166.328806 17.714136 Q 167.217487 16.825450 168.447968 16.825450 L 171.182370 16.825450 L 171.182370 15.013897 L 168.447968 15.013897 Q 166.465526 15.013897 165.029965 16.449467 Q 163.594404 17.885037 163.594404 19.867491 Z M 184.854382 29.950661 L 203.072339 27.728946 Q 205.806741 27.387143 207.635373 25.353419 Q 209.464004 23.319695 209.464004 20.551096 L 209.464004 19.867491 Q 209.464004 16.415287 206.968862 13.885949 Q 204.473720 11.390792 200.987357 11.390792 L 186.700104 11.390792 Q 183.247921 11.390792 180.752779 13.885949 Q 178.257637 16.381107 178.257637 19.867491 L 178.257637 20.004212 L 180.069178 20.004212 L 180.069178 19.867491 Q 180.069178 17.133072 182.017440 15.150618 Q 183.965702 13.202345 186.700104 13.202345 L 200.987357 13.202345 Q 203.687579 13.202345 205.704201 15.150618 Q 207.652463 17.133072 207.652463 19.867491 L 207.652463 20.619456 Q 207.652463 25.473050 202.867258 26.019934 L 184.615122 28.207469 Q 181.846540 28.515091 180.052088 30.565905 Q 178.257637 32.616720 178.257637 35.385319 L 178.257637 35.761301 Q 178.257637 39.213505 180.752779 41.708663 Q 183.247921 44.203820 186.700104 44.203820 L 200.987357 44.203820 Q 204.473720 44.203820 206.968862 41.708663 Q 209.361464 39.281866 209.429824 35.932203 L 207.652463 35.932203 Q 207.549923 38.461540 205.704201 40.443994 Q 203.687579 42.392267 200.987357 42.392267 L 186.700104 42.392267 Q 183.965702 42.392267 182.017440 40.443994 Q 180.069178 38.495720 180.069178 35.761301 L 180.069178 35.316958 Q 180.069178 30.531725 184.854382 29.950661 Z M 186.700104 47.963646 L 200.987357 47.963646 Q 206.011821 47.963646 209.532364 44.443082 Q 213.052907 40.854157 213.052907 35.932203 L 211.241366 35.932203 Q 211.241366 40.136372 208.233523 43.110052 Q 205.225680 46.152093 200.987357 46.152093 L 186.700104 46.152093 Q 182.427600 46.152093 179.453938 43.110052 Q 176.446095 40.102191 176.446095 35.898022 L 176.446095 35.419499 Q 176.446095 31.967295 178.701977 29.437957 Q 180.957859 26.908620 184.410042 26.498457 L 202.627998 24.310922 Q 205.840921 23.866579 205.840921 20.721997 L 205.840921 20.004212 Q 205.840921 18.055938 204.405360 16.620368 Q 203.038159 15.218979 200.987357 15.218979 L 186.700104 15.218979 Q 184.683482 15.218979 183.282101 16.620368 Q 181.846540 18.090119 181.846540 20.004212 L 183.658081 20.004212 Q 183.658081 18.739543 184.580942 17.919217 Q 185.469623 17.030531 186.700104 17.030531 L 200.987357 17.030531 Q 202.183658 17.030531 203.140699 17.919217 Q 204.029379 18.773723 204.029379 20.004212 L 204.029379 20.790357 Q 204.029379 22.362648 202.422918 22.567730 L 184.170782 24.789445 Q 180.069178 25.267968 177.351866 28.327100 Q 174.634553 31.386231 174.634553 35.522040 L 174.634553 35.932203 Q 174.634553 40.888337 178.189277 44.443082 Q 181.709820 47.963646 186.700104 47.963646 Z M 213.052907 20.004212 Q 213.052907 15.048078 209.532364 11.527513 Q 205.977641 7.972768 200.987357 7.972768 L 186.700104 7.972768 Q 181.744000 7.972768 178.189277 11.527513 Q 174.634553 15.013897 174.634553 20.004212 L 176.446095 20.004212 Q 176.446095 15.800043 179.453938 12.792182 Q 182.461780 9.784321 186.700104 9.784321 L 200.987357 9.784321 Q 205.225680 9.784321 208.233523 12.792182 Q 211.241366 15.800043 211.241366 20.004212 L 211.241366 20.482735 Q 211.241366 23.900759 208.968394 26.481367 Q 206.695422 29.061975 203.311599 29.506318 L 185.059463 31.693853 Q 181.846540 32.104016 181.846540 35.282778 Q 181.846540 35.453679 181.846540 35.624580 Q 181.846540 35.795482 181.846540 35.966383 Q 181.846540 37.914656 183.282101 39.350226 Q 184.649302 40.785796 186.700104 40.785796 L 200.987357 40.785796 Q 203.072339 40.785796 204.405360 39.350226 Q 205.840921 37.914656 205.840921 35.932203 L 204.029379 35.932203 Q 204.029379 37.128511 203.140699 38.085557 Q 202.183658 38.974244 200.987357 38.974244 L 186.700104 38.974244 Q 185.469623 38.974244 184.580942 38.085557 Q 183.658081 37.162691 183.658081 35.932203 L 183.658081 35.180237 Q 183.658081 33.539586 185.264543 33.368685 L 203.516679 31.181150 Q 207.618283 30.668446 210.335595 27.592225 Q 213.052907 24.516003 213.052907 20.414375 Q 213.052907 20.311834 213.052907 20.209293 Q 213.052907 20.106753 213.052907 20.004212 Z" transform="scale(1.000000,1.000000) translate(70.430755,89.463035)" fill="#ffffff" opacity="1.000000"></path>
        <path d="M 27.352803 40.785796 Q 29.437785 40.785796 30.770806 39.350226 Q 32.206368 37.948837 32.206368 35.966383 L 32.206368 7.801867 L 30.394826 7.801867 L 30.394826 35.932203 Q 30.394826 37.128511 29.506145 38.085557 Q 28.549104 38.974244 27.352803 38.974244 L 13.065551 38.974244 Q 11.835070 38.974244 10.946389 38.085557 Q 10.023528 37.162691 10.023528 35.932203 L 10.023528 19.867491 Q 10.023528 18.568642 10.946389 17.714136 Q 11.835070 16.825450 13.065551 16.825450 L 27.352803 16.825450 L 27.352803 15.013897 L 13.065551 15.013897 Q 11.083109 15.013897 9.647548 16.449467 Q 8.211986 17.885037 8.211986 19.867491 L 8.211986 35.966383 Q 8.211986 37.914656 9.647548 39.350226 Q 11.014749 40.785796 13.065551 40.785796 Z M 13.065551 47.963646 L 27.352803 47.963646 Q 32.377268 47.963646 35.897811 44.443082 Q 39.418354 40.854157 39.418354 35.932203 L 39.418354 7.801867 L 37.606812 7.801867 L 37.606812 35.898022 Q 37.606812 40.102191 34.598970 43.110052 Q 31.591127 46.152093 27.352803 46.152093 L 13.065551 46.152093 Q 8.793047 46.152093 5.819384 43.110052 Q 2.811542 40.102191 2.811542 35.898022 L 2.811542 19.867491 Q 2.811542 15.629142 5.819384 12.621281 Q 8.758867 9.613420 13.065551 9.613420 L 27.352803 9.613420 L 27.352803 7.801867 L 13.065551 7.801867 Q 8.109446 7.801867 4.554723 11.322432 Q 1.000000 14.877176 1.000000 19.867491 L 1.000000 35.932203 Q 1.000000 40.888337 4.554723 44.443082 Q 8.075266 47.963646 13.065551 47.963646 Z M 27.352803 42.563169 L 13.065551 42.563169 Q 10.262788 42.563169 8.382887 40.614895 Q 6.434625 38.666622 6.434625 35.932203 L 6.434625 19.867491 Q 6.434625 17.133072 8.382887 15.150618 Q 10.331148 13.202345 13.065551 13.202345 L 27.352803 13.202345 L 27.352803 11.390792 L 13.065551 11.390792 Q 9.613368 11.390792 7.118225 13.885949 Q 4.623083 16.381107 4.623083 19.867491 L 4.623083 35.932203 Q 4.623083 39.418587 7.118225 41.913744 Q 9.613368 44.374721 13.065551 44.374721 L 27.352803 44.374721 Q 30.804986 44.374721 33.334309 41.913744 Q 35.829451 39.350226 35.829451 35.932203 L 35.829451 7.801867 L 34.017909 7.801867 L 34.017909 35.932203 Q 34.017909 38.666622 32.069647 40.614895 Q 30.121386 42.563169 27.352803 42.563169 Z M 75.854266 7.801867 L 75.854266 35.932203 Q 75.854266 38.666622 73.906004 40.614895 Q 71.957743 42.563169 69.189160 42.563169 L 54.901908 42.563169 Q 52.099145 42.563169 50.219243 40.614895 Q 48.270982 38.666622 48.270982 35.932203 L 48.270982 7.801867 L 46.459440 7.801867 L 46.459440 35.932203 Q 46.459440 39.418587 48.954582 41.913744 Q 51.449725 44.374721 54.901908 44.374721 L 69.189160 44.374721 Q 72.641343 44.374721 75.170666 41.913744 Q 77.665808 39.350226 77.665808 35.932203 L 77.665808 7.801867 Z M 42.836357 7.801867 L 42.836357 35.932203 Q 42.836357 40.888337 46.391080 44.443082 Q 49.911623 47.963646 54.901908 47.963646 L 69.189160 47.963646 Q 74.213625 47.963646 77.734168 44.443082 Q 81.254711 40.854157 81.254711 35.932203 L 81.254711 7.801867 L 79.443169 7.801867 L 79.443169 35.898022 Q 79.443169 40.102191 76.435327 43.110052 Q 73.427484 46.152093 69.189160 46.152093 L 54.901908 46.152093 Q 50.629404 46.152093 47.655741 43.110052 Q 44.647899 40.102191 44.647899 35.898022 L 44.647899 7.801867 Z M 74.042725 7.801867 L 72.231183 7.801867 L 72.231183 35.932203 Q 72.231183 37.128511 71.342502 38.085557 Q 70.385461 38.974244 69.189160 38.974244 L 54.901908 38.974244 Q 53.671427 38.974244 52.782746 38.085557 Q 51.859885 37.162691 51.859885 35.932203 L 51.859885 7.801867 L 50.048343 7.801867 L 50.048343 35.966383 Q 50.048343 37.914656 51.483905 39.350226 Q 52.851106 40.785796 54.901908 40.785796 L 69.189160 40.785796 Q 71.274142 40.785796 72.607163 39.350226 Q 74.042725 37.948837 74.042725 35.966383 Z M 111.093877 42.563169 L 96.772445 42.563169 Q 93.969682 42.563169 92.089780 40.614895 Q 90.175699 38.700802 90.175699 35.932203 L 90.107339 26.669358 Q 90.107339 23.900759 92.055600 22.020846 Q 93.935502 20.072572 96.738265 20.072572 L 111.025517 20.072572 L 111.025517 18.261020 L 96.738265 18.261020 Q 93.286082 18.261020 90.790939 20.721997 Q 88.295797 23.217154 88.295797 26.669358 L 88.364157 35.932203 Q 88.364157 39.452767 90.825119 41.913744 Q 93.320262 44.374721 96.772445 44.374721 L 111.093877 44.374721 Q 114.580240 44.374721 117.041203 41.913744 Q 119.536345 39.418587 119.536345 35.932203 L 119.502165 13.031444 Q 119.502165 9.408338 117.007023 6.913181 Q 114.546060 4.452204 111.025517 4.452204 L 97.456045 4.452204 L 97.456045 6.263757 L 111.025517 6.263757 Q 113.725740 6.263757 115.742361 8.212030 Q 117.690623 10.160304 117.690623 13.065624 L 117.724803 35.932203 Q 117.724803 38.666622 115.776541 40.614895 Q 113.828280 42.563169 111.093877 42.563169 Z M 97.456045 8.177850 L 97.456045 9.989402 L 111.025517 9.989402 Q 112.255998 9.989402 113.178859 10.912269 Q 114.067540 11.800955 114.067540 13.031444 L 114.067540 35.932203 Q 114.067540 37.128511 113.178859 38.085557 Q 112.221818 38.974244 111.025517 38.974244 L 96.738265 38.974244 Q 95.507784 38.974244 94.619103 38.085557 Q 93.696242 37.162691 93.696242 35.932203 L 93.764602 26.703538 Q 93.764602 25.473050 94.653283 24.584364 Q 95.541964 23.695678 96.772445 23.695678 L 111.093877 23.695678 L 111.093877 21.884125 L 96.772445 21.884125 Q 94.858363 21.884125 93.354442 23.285515 Q 91.953060 24.721085 91.953060 26.703538 L 91.884700 35.966383 Q 91.884700 37.914656 93.320262 39.350226 Q 94.687463 40.785796 96.738265 40.785796 L 111.025517 40.785796 Q 113.110499 40.785796 114.443520 39.350226 Q 115.879082 37.948837 115.879082 35.966383 L 115.879082 13.031444 Q 115.879082 10.980629 114.443520 9.613420 Q 113.042139 8.177850 111.025517 8.177850 Z M 97.456045 1.000000 L 97.456045 2.811553 L 111.025517 2.811553 Q 115.263841 2.811553 118.271684 5.819413 Q 121.279526 8.827274 121.279526 13.031444 L 121.279526 35.898022 Q 121.279526 40.102191 118.271684 43.110052 Q 115.263841 46.152093 111.025517 46.152093 L 96.738265 46.152093 Q 92.465761 46.152093 89.492098 43.110052 Q 86.484256 40.102191 86.484256 35.898022 L 86.552616 26.669358 Q 86.552616 22.533550 89.526278 19.457328 Q 92.568301 16.449467 96.772445 16.449467 L 111.093877 16.449467 L 111.093877 14.637915 L 96.772445 14.637915 Q 91.782160 14.637915 88.295797 18.192659 Q 84.741074 21.679044 84.741074 26.669358 L 84.672714 35.932203 Q 84.672714 40.888337 88.227437 44.443082 Q 91.747980 47.963646 96.738265 47.963646 L 111.025517 47.963646 Q 116.049982 47.963646 119.570525 44.443082 Q 123.091068 40.854157 123.091068 35.932203 L 123.091068 13.031444 Q 123.091068 8.143670 119.570525 4.520564 Q 115.981622 1.000000 111.025517 1.000000 Z M 164.927425 47.963646 L 164.927425 19.867491 Q 164.927425 14.877176 161.406882 11.322432 Q 157.817979 7.801867 152.861874 7.801867 L 138.574622 7.801867 Q 133.618517 7.801867 130.063794 11.322432 Q 126.509071 14.877176 126.509071 19.867491 L 126.509071 47.963646 L 128.320612 47.963646 L 128.320612 19.867491 Q 128.320612 15.629142 131.328455 12.621281 Q 134.267938 9.613420 138.574622 9.613420 L 152.861874 9.613420 Q 157.134378 9.613420 160.108041 12.621281 Q 163.115883 15.629142 163.115883 19.867491 L 163.115883 47.963646 Z M 131.943696 47.963646 L 131.943696 19.867491 Q 131.943696 17.133072 133.891957 15.150618 Q 135.840219 13.202345 138.574622 13.202345 L 152.861874 13.202345 Q 155.562097 13.202345 157.578718 15.150618 Q 159.526980 17.133072 159.526980 19.867491 L 159.526980 47.963646 L 161.338522 47.963646 L 161.338522 19.867491 Q 161.338522 16.415287 158.843379 13.885949 Q 156.348237 11.390792 152.861874 11.390792 L 138.574622 11.390792 Q 135.122439 11.390792 132.627296 13.885949 Q 130.132154 16.381107 130.132154 19.867491 L 130.132154 47.963646 Z M 133.721057 47.963646 L 135.532599 47.963646 L 135.532599 19.867491 Q 135.532599 18.568642 136.455460 17.714136 Q 137.344140 16.825450 138.574622 16.825450 L 152.861874 16.825450 Q 154.058175 16.825450 155.015216 17.714136 Q 155.903897 18.602822 155.903897 19.867491 L 155.903897 47.963646 L 157.715438 47.963646 L 157.715438 19.867491 Q 157.715438 17.816677 156.279877 16.449467 Q 154.878496 15.013897 152.861874 15.013897 L 138.574622 15.013897 Q 136.592180 15.013897 135.156619 16.449467 Q 133.721057 17.885037 133.721057 19.867491 Z M 194.698231 40.785796 Q 196.783213 40.785796 198.116234 39.350226 Q 199.551795 37.948837 199.551795 35.966383 L 199.551795 7.801867 L 197.740254 7.801867 L 197.740254 35.932203 Q 197.740254 37.128511 196.851573 38.085557 Q 195.894532 38.974244 194.698231 38.974244 L 180.410979 38.974244 Q 179.180497 38.974244 178.291817 38.085557 Q 177.368956 37.162691 177.368956 35.932203 L 177.368956 19.867491 Q 177.368956 18.568642 178.291817 17.714136 Q 179.180497 16.825450 180.410979 16.825450 L 194.698231 16.825450 L 194.698231 15.013897 L 180.410979 15.013897 Q 178.428537 15.013897 176.992976 16.449467 Q 175.557414 17.885037 175.557414 19.867491 L 175.557414 35.966383 Q 175.557414 37.914656 176.992976 39.350226 Q 178.360177 40.785796 180.410979 40.785796 Z M 180.410979 47.963646 L 194.698231 47.963646 Q 199.722696 47.963646 203.243239 44.443082 Q 206.763782 40.854157 206.763782 35.932203 L 206.763782 7.801867 L 204.952240 7.801867 L 204.952240 35.898022 Q 204.952240 40.102191 201.944398 43.110052 Q 198.936555 46.152093 194.698231 46.152093 L 180.410979 46.152093 Q 176.138475 46.152093 173.164812 43.110052 Q 170.156969 40.102191 170.156969 35.898022 L 170.156969 19.867491 Q 170.156969 15.629142 173.164812 12.621281 Q 176.104295 9.613420 180.410979 9.613420 L 194.698231 9.613420 L 194.698231 7.801867 L 180.410979 7.801867 Q 175.454874 7.801867 171.900151 11.322432 Q 168.345428 14.877176 168.345428 19.867491 L 168.345428 35.932203 Q 168.345428 40.888337 171.900151 44.443082 Q 175.420694 47.963646 180.410979 47.963646 Z M 194.698231 42.563169 L 180.410979 42.563169 Q 177.608216 42.563169 175.728314 40.614895 Q 173.780053 38.666622 173.780053 35.932203 L 173.780053 19.867491 Q 173.780053 17.133072 175.728314 15.150618 Q 177.676576 13.202345 180.410979 13.202345 L 194.698231 13.202345 L 194.698231 11.390792 L 180.410979 11.390792 Q 176.958795 11.390792 174.463653 13.885949 Q 171.968511 16.381107 171.968511 19.867491 L 171.968511 35.932203 Q 171.968511 39.418587 174.463653 41.913744 Q 176.958795 44.374721 180.410979 44.374721 L 194.698231 44.374721 Q 198.150414 44.374721 200.679736 41.913744 Q 203.174879 39.350226 203.174879 35.932203 L 203.174879 7.801867 L 201.363337 7.801867 L 201.363337 35.932203 Q 201.363337 38.666622 199.415075 40.614895 Q 197.466814 42.563169 194.698231 42.563169 Z M 236.602948 42.563169 L 222.281516 42.563169 Q 219.478753 42.563169 217.598851 40.614895 Q 215.684770 38.700802 215.684770 35.932203 L 215.616410 26.669358 Q 215.616410 23.900759 217.564671 22.020846 Q 219.444573 20.072572 222.247335 20.072572 L 236.534588 20.072572 L 236.534588 18.261020 L 222.247335 18.261020 Q 218.795152 18.261020 216.300010 20.721997 Q 213.804868 23.217154 213.804868 26.669358 L 213.873228 35.932203 Q 213.873228 39.452767 216.334190 41.913744 Q 218.829332 44.374721 222.281516 44.374721 L 236.602948 44.374721 Q 240.089311 44.374721 242.550273 41.913744 Q 245.045416 39.418587 245.045416 35.932203 L 245.011236 13.031444 Q 245.011236 9.408338 242.516093 6.913181 Q 240.055131 4.452204 236.534588 4.452204 L 222.965116 4.452204 L 222.965116 6.263757 L 236.534588 6.263757 Q 239.234811 6.263757 241.251432 8.212030 Q 243.199694 10.160304 243.199694 13.065624 L 243.233874 35.932203 Q 243.233874 38.666622 241.285612 40.614895 Q 239.337351 42.563169 236.602948 42.563169 Z M 222.965116 8.177850 L 222.965116 9.989402 L 236.534588 9.989402 Q 237.765069 9.989402 238.687930 10.912269 Q 239.576611 11.800955 239.576611 13.031444 L 239.576611 35.932203 Q 239.576611 37.128511 238.687930 38.085557 Q 237.730889 38.974244 236.534588 38.974244 L 222.247335 38.974244 Q 221.016854 38.974244 220.128174 38.085557 Q 219.205313 37.162691 219.205313 35.932203 L 219.273673 26.703538 Q 219.273673 25.473050 220.162354 24.584364 Q 221.051034 23.695678 222.281516 23.695678 L 236.602948 23.695678 L 236.602948 21.884125 L 222.281516 21.884125 Q 220.367434 21.884125 218.863513 23.285515 Q 217.462131 24.721085 217.462131 26.703538 L 217.393771 35.966383 Q 217.393771 37.914656 218.829332 39.350226 Q 220.196534 40.785796 222.247335 40.785796 L 236.534588 40.785796 Q 238.619570 40.785796 239.952591 39.350226 Q 241.388152 37.948837 241.388152 35.966383 L 241.388152 13.031444 Q 241.388152 10.980629 239.952591 9.613420 Q 238.551210 8.177850 236.534588 8.177850 Z M 222.965116 1.000000 L 222.965116 2.811553 L 236.534588 2.811553 Q 240.772912 2.811553 243.780755 5.819413 Q 246.788597 8.827274 246.788597 13.031444 L 246.788597 35.898022 Q 246.788597 40.102191 243.780755 43.110052 Q 240.772912 46.152093 236.534588 46.152093 L 222.247335 46.152093 Q 217.974832 46.152093 215.001169 43.110052 Q 211.993326 40.102191 211.993326 35.898022 L 212.061686 26.669358 Q 212.061686 22.533550 215.035349 19.457328 Q 218.077372 16.449467 222.281516 16.449467 L 236.602948 16.449467 L 236.602948 14.637915 L 222.281516 14.637915 Q 217.291231 14.637915 213.804868 18.192659 Q 210.250145 21.679044 210.250145 26.669358 L 210.181785 35.932203 Q 210.181785 40.888337 213.736508 44.443082 Q 217.257051 47.963646 222.247335 47.963646 L 236.534588 47.963646 Q 241.559053 47.963646 245.079596 44.443082 Q 248.600139 40.854157 248.600139 35.932203 L 248.600139 13.031444 Q 248.600139 8.143670 245.079596 4.520564 Q 241.490692 1.000000 236.534588 1.000000 Z M 278.439305 42.563169 L 264.152053 42.563169 Q 261.349290 42.563169 259.469388 40.614895 Q 257.555307 38.700802 257.555307 35.932203 L 257.486947 19.867491 Q 257.486947 17.133072 259.435208 15.150618 Q 261.383470 13.202345 264.117872 13.202345 L 278.370945 13.202345 Q 281.071167 13.202345 283.087789 15.150618 Q 285.036051 17.133072 285.036051 19.867491 L 286.881773 19.867491 Q 286.881773 16.415287 284.386630 13.885949 Q 281.891488 11.390792 278.405125 11.390792 L 264.083692 11.390792 Q 260.631509 11.390792 258.136367 13.885949 Q 255.641225 16.381107 255.641225 19.867491 L 255.709585 35.932203 Q 255.709585 39.452767 258.170547 41.913744 Q 260.665689 44.374721 264.117872 44.374721 L 278.473485 44.374721 Q 281.959848 44.374721 284.420810 41.913744 Q 286.915953 39.418587 286.915953 35.932203 L 286.881773 34.257371 Q 286.881773 31.283690 284.745521 29.181606 Q 282.609269 27.079521 279.635606 27.079521 L 264.083692 27.079521 L 264.083692 28.891074 L 279.635606 28.891074 Q 281.857308 28.891074 283.446680 30.446274 Q 285.036051 32.001475 285.036051 34.257371 L 285.070231 35.932203 Q 285.070231 38.666622 283.121969 40.614895 Q 281.173708 42.563169 278.439305 42.563169 Z M 290.436496 35.932203 L 290.436496 34.291551 Q 290.436496 29.813940 287.257753 26.652268 Q 284.079010 23.490596 279.601426 23.490596 L 264.083692 23.490596 L 264.083692 25.302149 L 279.601426 25.302149 Q 283.292869 25.302149 285.958912 27.934027 Q 288.624954 30.565905 288.624954 34.291551 L 288.624954 35.932203 Q 288.624954 40.136372 285.617111 43.110052 Q 282.609269 46.152093 278.370945 46.152093 L 264.083692 46.152093 Q 259.811189 46.152093 256.837526 43.110052 Q 253.829683 40.102191 253.829683 35.898022 L 253.932223 19.867491 Q 253.932223 15.629142 256.940066 12.621281 Q 259.947909 9.613420 264.186233 9.613420 L 278.507665 9.613420 Q 282.711809 9.613420 285.719652 12.621281 Q 288.727494 15.629142 288.727494 19.867491 L 290.539036 19.867491 Q 290.539036 14.911357 286.984313 11.356612 Q 283.463770 7.801867 278.507665 7.801867 L 264.186233 7.801867 Q 259.230128 7.801867 255.675405 11.356612 Q 252.154862 14.877176 252.154862 19.867491 L 252.018142 35.932203 Q 252.018142 40.888337 255.572865 44.443082 Q 259.093408 47.963646 264.083692 47.963646 L 278.370945 47.963646 Q 283.395410 47.963646 286.915953 44.443082 Q 290.436496 40.854157 290.436496 35.932203 Z M 283.224509 35.966383 L 283.224509 34.291551 Q 283.224509 30.702626 279.601426 30.702626 L 264.083692 30.702626 L 264.083692 32.514179 L 279.601426 32.514179 Q 281.412968 32.514179 281.412968 34.325731 L 281.412968 35.932203 Q 281.412968 37.128511 280.524287 38.085557 Q 279.567246 38.974244 278.370945 38.974244 L 264.083692 38.974244 Q 262.853211 38.974244 261.964531 38.085557 Q 261.041670 37.162691 261.041670 35.932203 L 261.110030 19.867491 Q 261.110030 18.602822 261.998711 17.714136 Q 262.887391 16.825450 264.117872 16.825450 L 278.439305 16.825450 Q 279.669786 16.825450 280.558467 17.714136 Q 281.447148 18.602822 281.447148 19.867491 L 283.258689 19.867491 Q 283.258689 17.816677 281.823128 16.449467 Q 280.421747 15.013897 278.439305 15.013897 L 264.117872 15.013897 Q 262.169611 15.013897 260.699869 16.449467 Q 259.298488 17.850857 259.298488 19.867491 L 259.230128 35.966383 Q 259.230128 37.914656 260.665689 39.350226 Q 262.032891 40.785796 264.083692 40.785796 L 278.370945 40.785796 Q 280.455927 40.785796 281.788948 39.350226 Q 283.224509 37.948837 283.224509 35.966383 Z" transform="scale(1.000000,1.000000) translate(70.430743,172.329314)" fill="#ffffff" opacity="1.000000"></path>
    </g>
</svg>