<?xml version="1.0" encoding="UTF-8" standalone="yes"?>
<!DOCTYPE svg PUBLIC "-//W3C//DTD SVG 1.1//EN" "http://www.w3.org/Graphics/SVG/1.1/DTD/svg11.dtd">

<svg width="450" height="50" viewBox="0 0 450 50" xmlns="http://www.w3.org/2000/svg" xmlns:xlink="http://www.w3.org/1999/xlink" version="1.1" baseProfile="full">
    <g transform="scale(1,-1) translate(0,-50)">
        <path d="M 4.802734 34.988281 L 4.845703 12.880859 Q 4.845703 11.269531 5.962891 10.109375 Q 7.101562 8.970703 8.712891 8.970703 L 10.625000 8.970703 L 10.625000 7.423828 L 8.712891 7.423828 Q 6.478516 7.423828 4.888672 9.035156 Q 3.298828 10.603516 3.298828 12.880859 L 3.255859 34.988281 Z M 2.546875 34.988281 L 2.589844 12.880859 Q 2.589844 10.324219 4.373047 8.541016 Q 6.177734 6.736328 8.712891 6.736328 L 10.625000 6.736328 L 10.625000 5.189453 L 8.712891 5.189453 Q 5.576172 5.189453 3.320312 7.445312 Q 1.042969 9.722656 1.042969 12.880859 L 1.000000 34.988281 Z M 5.468750 34.988281 L 7.015625 34.988281 L 7.080078 12.880859 Q 7.080078 12.193359 7.574219 11.699219 Q 8.068359 11.205078 8.755859 11.205078 L 10.646484 11.205078 L 10.646484 9.658203 L 8.755859 9.658203 Q 7.445312 9.658203 6.500000 10.603516 Q 6.027344 11.054688 5.791016 11.656250 Q 5.554688 12.257812 5.533203 12.880859 Z M 29.037109 25.921875 Q 30.412109 25.921875 31.292969 24.976562 Q 32.238281 24.117188 32.238281 22.742188 L 32.238281 5.189453 L 30.712891 5.189453 L 30.712891 22.742188 Q 30.712891 23.365234 30.218750 23.923828 Q 29.660156 24.417969 29.037109 24.417969 L 20.228516 24.417969 Q 19.562500 24.417969 19.068359 23.923828 Q 18.574219 23.386719 18.574219 22.742188 L 18.574219 12.837891 Q 18.574219 12.150391 19.068359 11.656250 Q 19.541016 11.183594 20.228516 11.183594 L 29.251953 11.183594 L 29.251953 9.636719 L 20.228516 9.636719 Q 18.960938 9.636719 17.972656 10.582031 Q 17.027344 11.570313 17.027344 12.837891 L 17.027344 22.742188 Q 17.027344 24.031250 17.972656 24.976562 Q 18.917969 25.921875 20.228516 25.921875 Z M 29.037109 30.369141 Q 32.238281 30.369141 34.451172 28.134766 Q 36.685547 25.878906 36.685547 22.742188 L 36.685547 5.189453 L 35.160156 5.189453 L 35.160156 22.742188 Q 35.160156 25.234375 33.355469 27.039063 Q 31.550781 28.843750 29.037109 28.843750 L 20.228516 28.843750 Q 17.714844 28.843750 15.910156 27.039063 Q 14.126953 25.255859 14.126953 22.742188 L 14.126953 12.837891 Q 14.126953 10.302734 15.910156 8.519531 Q 17.628906 6.736328 20.228516 6.736328 L 29.251953 6.736328 L 29.251953 5.189453 L 20.228516 5.189453 Q 17.070312 5.189453 14.835938 7.423828 Q 12.580078 9.679688 12.580078 12.837891 L 12.580078 22.742188 Q 12.580078 25.878906 14.835938 28.134766 Q 17.070312 30.369141 20.228516 30.369141 Z M 20.228516 26.630859 Q 18.595703 26.630859 17.500000 25.492188 Q 16.361328 24.353516 16.361328 22.742188 L 16.361328 12.837891 Q 16.361328 11.226563 17.500000 10.087891 Q 18.617188 8.949219 20.228516 8.949219 L 29.251953 8.949219 L 29.251953 7.402344 L 20.228516 7.402344 Q 18.037109 7.402344 16.425781 9.013672 Q 14.814453 10.625000 14.814453 12.837891 L 14.814453 22.742188 Q 14.814453 24.976562 16.425781 26.587891 Q 18.015625 28.156250 20.228516 28.156250 L 29.037109 28.156250 Q 31.292969 28.156250 32.882812 26.587891 Q 34.472656 24.933594 34.472656 22.742188 L 34.472656 5.189453 L 32.947266 5.189453 L 32.947266 22.742188 Q 32.947266 24.310547 31.808594 25.492188 Q 30.626953 26.630859 29.037109 26.630859 Z M 59.244141 5.189453 L 59.244141 22.742188 Q 59.244141 24.310547 58.105469 25.492188 Q 56.923828 26.630859 55.333984 26.630859 L 46.525391 26.630859 Q 44.892578 26.630859 43.796875 25.492188 Q 42.658203 24.353516 42.658203 22.742188 L 42.658203 5.189453 L 41.111328 5.189453 L 41.111328 22.742188 Q 41.111328 24.976562 42.722656 26.587891 Q 44.312500 28.156250 46.525391 28.156250 L 55.333984 28.156250 Q 57.589844 28.156250 59.179688 26.587891 Q 60.769531 24.933594 60.769531 22.742188 L 60.769531 5.189453 Z M 38.876953 5.189453 L 38.876953 22.742188 Q 38.876953 25.878906 41.132812 28.134766 Q 43.367188 30.369141 46.525391 30.369141 L 55.333984 30.369141 Q 58.535156 30.369141 60.748047 28.134766 Q 62.982422 25.878906 62.982422 22.742188 L 62.982422 5.189453 L 61.457031 5.189453 L 61.457031 22.742188 Q 61.457031 25.234375 59.652344 27.039063 Q 57.847656 28.843750 55.333984 28.843750 L 46.525391 28.843750 Q 44.011719 28.843750 42.207031 27.039063 Q 40.423828 25.255859 40.423828 22.742188 L 40.423828 5.189453 Z M 58.535156 5.189453 L 57.009766 5.189453 L 57.009766 22.742188 Q 57.009766 23.365234 56.515625 23.923828 Q 55.957031 24.417969 55.333984 24.417969 L 46.525391 24.417969 Q 45.859375 24.417969 45.365234 23.923828 Q 44.871094 23.386719 44.871094 22.742188 L 44.871094 5.189453 L 43.324219 5.189453 L 43.324219 22.742188 Q 43.324219 24.031250 44.269531 24.976562 Q 45.214844 25.921875 46.525391 25.921875 L 55.333984 25.921875 Q 56.708984 25.921875 57.589844 24.976562 Q 58.535156 24.117188 58.535156 22.742188 Z M 72.843750 26.630859 Q 71.210938 26.630859 70.115234 25.492188 Q 68.998047 24.375000 68.998047 22.742188 L 68.955078 17.027344 Q 68.955078 15.394531 70.093750 14.320313 Q 71.167969 13.181641 72.822266 13.181641 L 81.845703 13.181641 L 81.845703 11.634766 L 72.822266 11.634766 Q 70.652344 11.634766 69.019531 13.224609 Q 67.408203 14.835938 67.408203 17.027344 L 67.451172 22.742188 Q 67.451172 24.998047 69.041016 26.587891 Q 70.630859 28.156250 72.843750 28.156250 L 81.673828 28.156250 Q 83.929688 28.156250 85.498047 26.587891 Q 87.087891 24.998047 87.087891 22.742188 L 87.066406 8.626953 Q 87.066406 6.285156 85.476562 4.695312 Q 83.908203 3.126953 81.630859 3.126953 L 73.058594 3.126953 L 73.058594 4.630859 L 81.630859 4.630859 Q 83.199219 4.630859 84.402344 5.769531 Q 85.541016 6.951172 85.541016 8.626953 L 85.562500 22.742188 Q 85.562500 24.310547 84.423828 25.492188 Q 83.242188 26.630859 81.673828 26.630859 Z M 73.058594 5.425781 L 73.058594 6.951172 L 81.630859 6.951172 Q 82.296875 6.951172 82.812500 7.466797 Q 83.306641 7.960938 83.306641 8.626953 L 83.306641 22.742188 Q 83.306641 23.365234 82.812500 23.923828 Q 82.253906 24.417969 81.630859 24.417969 L 72.822266 24.417969 Q 72.156250 24.417969 71.662109 23.923828 Q 71.167969 23.386719 71.167969 22.742188 L 71.210938 17.048828 Q 71.210938 16.361328 71.683594 15.888672 Q 72.199219 15.416016 72.843750 15.416016 L 81.888672 15.416016 L 81.888672 13.869141 L 72.843750 13.869141 Q 71.619141 13.869141 70.587891 14.792969 Q 69.664062 15.781250 69.664062 17.048828 L 69.621094 22.742188 Q 69.621094 24.031250 70.566406 24.976562 Q 71.511719 25.921875 72.822266 25.921875 L 81.630859 25.921875 Q 83.005859 25.921875 83.886719 24.976562 Q 84.832031 24.117188 84.832031 22.742188 L 84.832031 8.626953 Q 84.832031 7.230469 83.886719 6.371094 Q 83.005859 5.425781 81.630859 5.425781 Z M 73.058594 1.000000 L 73.058594 2.525391 L 81.630859 2.525391 Q 84.144531 2.525391 85.949219 4.330078 Q 87.753906 6.134766 87.753906 8.626953 L 87.753906 22.742188 Q 87.753906 25.234375 85.949219 27.039063 Q 84.144531 28.843750 81.630859 28.843750 L 72.822266 28.843750 Q 70.308594 28.843750 68.503906 27.039063 Q 66.720703 25.255859 66.720703 22.742188 L 66.763672 17.027344 Q 66.763672 14.556641 68.525391 12.730469 Q 70.308594 10.947266 72.843750 10.947266 L 81.888672 10.947266 L 81.888672 9.400391 L 72.843750 9.400391 Q 69.685547 9.400391 67.472656 11.656250 Q 65.216797 13.869141 65.216797 17.027344 L 65.173828 22.742188 Q 65.173828 25.878906 67.429688 28.134766 Q 69.664062 30.369141 72.822266 30.369141 L 81.630859 30.369141 Q 84.832031 30.369141 87.044922 28.134766 Q 89.279297 25.878906 89.279297 22.742188 L 89.279297 8.626953 Q 89.279297 5.490234 87.044922 3.234375 Q 84.789062 1.000000 81.630859 1.000000 Z M 115.576172 30.369141 L 115.576172 12.837891 Q 115.576172 9.658203 113.341797 7.423828 Q 111.085938 5.189453 107.927734 5.189453 L 99.119141 5.189453 Q 95.960938 5.189453 93.726562 7.423828 Q 91.470703 9.679688 91.470703 12.837891 L 91.470703 30.369141 L 93.017578 30.369141 L 93.017578 12.837891 Q 93.017578 10.302734 94.800781 8.519531 Q 96.519531 6.736328 99.119141 6.736328 L 107.927734 6.736328 Q 110.484375 6.736328 112.246094 8.519531 Q 114.050781 10.324219 114.050781 12.837891 L 114.050781 30.369141 Z M 95.251953 30.369141 L 95.251953 12.837891 Q 95.251953 11.226563 96.390625 10.087891 Q 97.507812 8.949219 99.119141 8.949219 L 107.927734 8.949219 Q 109.539062 8.949219 110.699219 10.087891 Q 111.837891 11.269531 111.837891 12.837891 L 111.837891 30.369141 L 113.363281 30.369141 L 113.363281 12.837891 Q 113.363281 10.603516 111.773438 9.013672 Q 110.162109 7.402344 107.927734 7.402344 L 99.119141 7.402344 Q 96.927734 7.402344 95.316406 9.013672 Q 93.705078 10.625000 93.705078 12.837891 L 93.705078 30.369141 Z M 95.917969 30.369141 L 97.464844 30.369141 L 97.464844 12.837891 Q 97.464844 12.150391 97.958984 11.656250 Q 98.431641 11.183594 99.119141 11.183594 L 107.927734 11.183594 Q 108.572266 11.183594 109.109375 11.656250 Q 109.603516 12.150391 109.603516 12.837891 L 109.603516 30.369141 L 111.128906 30.369141 L 111.128906 12.837891 Q 111.128906 11.462891 110.183594 10.582031 Q 109.302734 9.636719 107.927734 9.636719 L 99.119141 9.636719 Q 97.851562 9.636719 96.863281 10.582031 Q 95.917969 11.570313 95.917969 12.837891 Z M 134.224609 25.921875 Q 135.599609 25.921875 136.480469 24.976562 Q 137.425781 24.117188 137.425781 22.742188 L 137.425781 5.189453 L 135.900391 5.189453 L 135.900391 22.742188 Q 135.900391 23.365234 135.406250 23.923828 Q 134.847656 24.417969 134.224609 24.417969 L 125.416016 24.417969 Q 124.750000 24.417969 124.255859 23.923828 Q 123.761719 23.386719 123.761719 22.742188 L 123.761719 12.837891 Q 123.761719 12.150391 124.255859 11.656250 Q 124.728516 11.183594 125.416016 11.183594 L 134.439453 11.183594 L 134.439453 9.636719 L 125.416016 9.636719 Q 124.148438 9.636719 123.160156 10.582031 Q 122.214844 11.570313 122.214844 12.837891 L 122.214844 22.742188 Q 122.214844 24.031250 123.160156 24.976562 Q 124.105469 25.921875 125.416016 25.921875 Z M 134.224609 30.369141 Q 137.425781 30.369141 139.638672 28.134766 Q 141.873047 25.878906 141.873047 22.742188 L 141.873047 5.189453 L 140.347656 5.189453 L 140.347656 22.742188 Q 140.347656 25.234375 138.542969 27.039063 Q 136.738281 28.843750 134.224609 28.843750 L 125.416016 28.843750 Q 122.902344 28.843750 121.097656 27.039063 Q 119.314453 25.255859 119.314453 22.742188 L 119.314453 12.837891 Q 119.314453 10.302734 121.097656 8.519531 Q 122.816406 6.736328 125.416016 6.736328 L 134.439453 6.736328 L 134.439453 5.189453 L 125.416016 5.189453 Q 122.257812 5.189453 120.023438 7.423828 Q 117.767578 9.679688 117.767578 12.837891 L 117.767578 22.742188 Q 117.767578 25.878906 120.023438 28.134766 Q 122.257812 30.369141 125.416016 30.369141 Z M 125.416016 26.630859 Q 123.783203 26.630859 122.687500 25.492188 Q 121.548828 24.353516 121.548828 22.742188 L 121.548828 12.837891 Q 121.548828 11.226563 122.687500 10.087891 Q 123.804688 8.949219 125.416016 8.949219 L 134.439453 8.949219 L 134.439453 7.402344 L 125.416016 7.402344 Q 123.224609 7.402344 121.613281 9.013672 Q 120.001953 10.625000 120.001953 12.837891 L 120.001953 22.742188 Q 120.001953 24.976562 121.613281 26.587891 Q 123.203125 28.156250 125.416016 28.156250 L 134.224609 28.156250 Q 136.480469 28.156250 138.070312 26.587891 Q 139.660156 24.933594 139.660156 22.742188 L 139.660156 5.189453 L 138.134766 5.189453 L 138.134766 22.742188 Q 138.134766 24.310547 136.996094 25.492188 Q 135.814453 26.630859 134.224609 26.630859 Z M 151.734375 26.630859 Q 150.101562 26.630859 149.005859 25.492188 Q 147.888672 24.375000 147.888672 22.742188 L 147.845703 17.027344 Q 147.845703 15.394531 148.984375 14.320313 Q 150.058594 13.181641 151.712891 13.181641 L 160.736328 13.181641 L 160.736328 11.634766 L 151.712891 11.634766 Q 149.542969 11.634766 147.910156 13.224609 Q 146.298828 14.835938 146.298828 17.027344 L 146.341797 22.742188 Q 146.341797 24.998047 147.931641 26.587891 Q 149.521484 28.156250 151.734375 28.156250 L 160.564453 28.156250 Q 162.820312 28.156250 164.388672 26.587891 Q 165.978516 24.998047 165.978516 22.742188 L 165.957031 8.626953 Q 165.957031 6.285156 164.367188 4.695312 Q 162.798828 3.126953 160.521484 3.126953 L 151.949219 3.126953 L 151.949219 4.630859 L 160.521484 4.630859 Q 162.089844 4.630859 163.292969 5.769531 Q 164.431641 6.951172 164.431641 8.626953 L 164.453125 22.742188 Q 164.453125 24.310547 163.314453 25.492188 Q 162.132812 26.630859 160.564453 26.630859 Z M 151.949219 5.425781 L 151.949219 6.951172 L 160.521484 6.951172 Q 161.187500 6.951172 161.703125 7.466797 Q 162.197266 7.960938 162.197266 8.626953 L 162.197266 22.742188 Q 162.197266 23.365234 161.703125 23.923828 Q 161.144531 24.417969 160.521484 24.417969 L 151.712891 24.417969 Q 151.046875 24.417969 150.552734 23.923828 Q 150.058594 23.386719 150.058594 22.742188 L 150.101562 17.048828 Q 150.101562 16.361328 150.574219 15.888672 Q 151.089844 15.416016 151.734375 15.416016 L 160.779297 15.416016 L 160.779297 13.869141 L 151.734375 13.869141 Q 150.509766 13.869141 149.478516 14.792969 Q 148.554688 15.781250 148.554688 17.048828 L 148.511719 22.742188 Q 148.511719 24.031250 149.457031 24.976562 Q 150.402344 25.921875 151.712891 25.921875 L 160.521484 25.921875 Q 161.896484 25.921875 162.777344 24.976562 Q 163.722656 24.117188 163.722656 22.742188 L 163.722656 8.626953 Q 163.722656 7.230469 162.777344 6.371094 Q 161.896484 5.425781 160.521484 5.425781 Z M 151.949219 1.000000 L 151.949219 2.525391 L 160.521484 2.525391 Q 163.035156 2.525391 164.839844 4.330078 Q 166.644531 6.134766 166.644531 8.626953 L 166.644531 22.742188 Q 166.644531 25.234375 164.839844 27.039063 Q 163.035156 28.843750 160.521484 28.843750 L 151.712891 28.843750 Q 149.199219 28.843750 147.394531 27.039063 Q 145.611328 25.255859 145.611328 22.742188 L 145.654297 17.027344 Q 145.654297 14.556641 147.416016 12.730469 Q 149.199219 10.947266 151.734375 10.947266 L 160.779297 10.947266 L 160.779297 9.400391 L 151.734375 9.400391 Q 148.576172 9.400391 146.363281 11.656250 Q 144.107422 13.869141 144.107422 17.027344 L 144.064453 22.742188 Q 144.064453 25.878906 146.320312 28.134766 Q 148.554688 30.369141 151.712891 30.369141 L 160.521484 30.369141 Q 163.722656 30.369141 165.935547 28.134766 Q 168.169922 25.878906 168.169922 22.742188 L 168.169922 8.626953 Q 168.169922 5.490234 165.935547 3.234375 Q 163.679688 1.000000 160.521484 1.000000 Z M 178.031250 26.630859 Q 176.398438 26.630859 175.302734 25.492188 Q 174.185547 24.375000 174.185547 22.742188 L 174.142578 12.837891 Q 174.142578 11.226563 175.281250 10.087891 Q 176.398438 8.949219 178.009766 8.949219 L 186.818359 8.949219 Q 188.429688 8.949219 189.589844 10.087891 Q 190.728516 11.269531 190.728516 13.052734 L 192.253906 13.052734 Q 192.253906 10.603516 190.664062 9.013672 Q 189.052734 7.402344 186.818359 7.402344 L 178.009766 7.402344 Q 175.818359 7.402344 174.207031 9.013672 Q 172.595703 10.625000 172.595703 12.837891 L 172.638672 22.742188 Q 172.638672 24.998047 174.228516 26.587891 Q 175.818359 28.156250 178.031250 28.156250 L 186.861328 28.156250 Q 189.117188 28.156250 190.685547 26.587891 Q 192.275391 24.998047 192.275391 22.742188 L 192.253906 21.710938 Q 192.253906 19.777344 190.878906 18.423828 Q 189.525391 17.070313 187.591797 17.070313 L 177.794922 17.070313 L 177.794922 18.617188 L 187.591797 18.617188 Q 188.859375 18.617188 189.783203 19.498047 Q 190.728516 20.400391 190.728516 21.710938 L 190.750000 22.742188 Q 190.750000 24.310547 189.611328 25.492188 Q 188.429688 26.630859 186.861328 26.630859 Z M 194.466797 21.732422 Q 194.466797 18.875000 192.447266 16.855469 Q 190.384766 14.857422 187.570312 14.857422 L 177.794922 14.857422 L 177.794922 16.382812 L 187.570312 16.382812 Q 189.761719 16.382812 191.351562 17.929688 Q 192.941406 19.476562 192.941406 21.732422 L 192.941406 22.742188 Q 192.941406 25.234375 191.136719 27.039063 Q 189.332031 28.843750 186.818359 28.843750 L 178.009766 28.843750 Q 175.496094 28.843750 173.691406 27.039063 Q 172.810547 26.158203 172.380859 25.051758 Q 171.951172 23.945312 171.908203 22.742188 Q 171.908203 21.603516 171.918945 20.335938 Q 171.929688 19.068359 171.940430 17.779297 Q 171.951172 16.490234 171.961914 15.222656 Q 171.972656 13.955078 171.972656 12.837891 Q 171.972656 10.302734 173.755859 8.519531 Q 175.539062 6.736328 178.074219 6.736328 L 186.904297 6.736328 Q 189.417969 6.736328 191.201172 8.519531 Q 193.005859 10.324219 193.005859 13.052734 L 194.531250 13.052734 Q 194.531250 9.701172 192.275391 7.445312 Q 190.041016 5.189453 186.904297 5.189453 L 178.074219 5.189453 Q 174.937500 5.189453 172.681641 7.445312 Q 170.447266 9.679688 170.447266 12.837891 Q 170.425781 15.308594 170.404297 17.790039 Q 170.382812 20.271484 170.361328 22.742188 Q 170.361328 25.878906 172.617188 28.134766 Q 174.851562 30.369141 178.009766 30.369141 L 186.818359 30.369141 Q 190.019531 30.369141 192.232422 28.134766 Q 194.466797 25.878906 194.466797 22.742188 Z M 190.019531 21.732422 Q 190.019531 19.304688 187.570312 19.304688 L 177.794922 19.304688 L 177.794922 20.830078 L 187.570312 20.830078 Q 188.494141 20.830078 188.494141 21.732422 L 188.494141 22.742188 Q 188.494141 23.365234 188.000000 23.923828 Q 187.441406 24.417969 186.818359 24.417969 L 178.009766 24.417969 Q 177.343750 24.417969 176.849609 23.923828 Q 176.355469 23.386719 176.355469 22.742188 L 176.398438 12.837891 Q 176.398438 12.128906 176.871094 11.656250 Q 177.343750 11.183594 178.031250 11.183594 L 186.861328 11.183594 Q 187.548828 11.183594 188.021484 11.656250 Q 188.515625 12.150391 188.515625 13.052734 L 190.041016 13.052734 Q 190.041016 11.484375 189.095703 10.582031 Q 188.214844 9.636719 186.861328 9.636719 L 178.031250 9.636719 Q 176.828125 9.636719 175.775391 10.582031 Q 174.851562 11.548828 174.851562 12.837891 L 174.808594 22.742188 Q 174.808594 24.031250 175.753906 24.976562 Q 176.699219 25.921875 178.009766 25.921875 L 186.818359 25.921875 Q 188.193359 25.921875 189.074219 24.976562 Q 190.019531 24.117188 190.019531 22.742188 Z M 213.673828 26.738281 Q 212.041016 26.738281 210.902344 25.599609 Q 209.785156 24.439453 209.785156 22.849609 L 209.742188 12.880859 Q 209.742188 11.291016 210.880859 10.109375 Q 212.019531 8.970703 213.652344 8.970703 L 222.503906 8.970703 Q 224.136719 8.970703 225.275391 10.109375 Q 226.414062 11.248047 226.414062 13.095703 L 227.960938 13.095703 Q 227.960938 10.625000 226.349609 9.035156 Q 224.759766 7.423828 222.503906 7.423828 L 213.652344 7.423828 Q 211.396484 7.423828 209.806641 9.035156 Q 208.195312 10.646484 208.195312 12.880859 L 208.238281 22.849609 Q 208.238281 25.105469 209.828125 26.695312 Q 211.460938 28.285156 213.673828 28.285156 L 222.546875 28.285156 Q 224.781250 28.285156 226.371094 26.695312 Q 227.982422 25.105469 227.982422 22.849609 L 227.960938 21.796875 Q 227.960938 19.863281 226.585938 18.488281 Q 225.232422 17.134766 223.277344 17.134766 L 213.437500 17.134766 L 213.437500 18.681641 L 223.277344 18.681641 Q 224.544922 18.681641 225.490234 19.583984 Q 226.414062 20.486328 226.414062 21.796875 L 226.435547 22.849609 Q 226.435547 24.460938 225.296875 25.599609 Q 224.158203 26.738281 222.546875 26.738281 Z M 230.195312 21.818359 Q 230.195312 18.960938 228.154297 16.919922 Q 226.113281 14.921875 223.255859 14.921875 L 213.437500 14.921875 L 213.437500 16.447266 L 223.255859 16.447266 Q 225.490234 16.447266 227.058594 18.015625 Q 228.648438 19.562500 228.648438 21.818359 L 228.648438 22.849609 Q 228.648438 25.363281 226.843750 27.167969 Q 225.017578 28.994141 222.503906 28.994141 L 213.652344 28.994141 Q 211.160156 28.994141 209.291016 27.167969 Q 208.410156 26.265625 207.980469 25.159180 Q 207.550781 24.052734 207.507812 22.849609 Q 207.507812 21.710938 207.518555 20.432617 Q 207.529297 19.154297 207.540039 17.854492 Q 207.550781 16.554688 207.561523 15.276367 Q 207.572266 13.998047 207.572266 12.880859 Q 207.572266 10.324219 209.355469 8.541016 Q 211.181641 6.736328 213.716797 6.736328 L 222.589844 6.736328 Q 225.103516 6.736328 226.908203 8.541016 Q 228.712891 10.345703 228.712891 13.095703 L 230.259766 13.095703 Q 230.259766 9.744141 227.982422 7.466797 Q 225.705078 5.189453 222.589844 5.189453 L 213.716797 5.189453 Q 210.558594 5.189453 208.281250 7.466797 Q 206.046875 9.701172 206.046875 12.880859 Q 206.025391 15.373047 206.003906 17.865234 Q 205.982422 20.357422 205.960938 22.849609 Q 205.960938 26.007813 208.216797 28.263672 Q 210.472656 30.519531 213.652344 30.519531 L 222.503906 30.519531 Q 225.683594 30.519531 227.939453 28.263672 Q 230.195312 25.943359 230.195312 22.849609 Z M 225.726562 21.818359 Q 225.726562 19.390625 223.255859 19.390625 L 213.437500 19.390625 L 213.437500 20.916016 L 223.255859 20.916016 Q 224.179688 20.916016 224.179688 21.818359 L 224.179688 22.849609 Q 224.179688 23.472656 223.685547 24.031250 Q 223.148438 24.503906 222.503906 24.503906 L 213.652344 24.503906 Q 212.943359 24.503906 212.470703 24.031250 Q 211.976562 23.494141 211.976562 22.849609 L 212.019531 12.880859 Q 212.019531 12.214844 212.492188 11.699219 Q 212.986328 11.205078 213.673828 11.205078 L 222.546875 11.205078 Q 223.212891 11.205078 223.707031 11.699219 Q 224.201172 12.193359 224.201172 13.095703 L 225.748047 13.095703 Q 225.748047 11.505859 224.781250 10.603516 Q 223.900391 9.658203 222.546875 9.658203 L 213.673828 9.658203 Q 213.029297 9.658203 212.470703 9.894531 Q 211.912109 10.130859 211.396484 10.603516 Q 210.472656 11.570313 210.472656 12.880859 L 210.429688 22.849609 Q 210.429688 24.095703 211.375000 25.083984 Q 212.298828 26.029297 213.652344 26.029297 L 222.503906 26.029297 Q 223.900391 26.029297 224.759766 25.083984 Q 225.726562 24.181641 225.726562 22.849609 Z M 236.125000 30.369141 L 236.125000 22.355469 Q 236.125000 20.765625 237.263672 19.626953 Q 237.843750 19.068359 238.509766 18.778320 Q 239.175781 18.488281 239.992188 18.488281 L 248.800781 18.488281 Q 250.326172 18.488281 251.572266 19.626953 Q 252.130859 20.207031 252.420898 20.873047 Q 252.710938 21.539063 252.710938 22.355469 L 252.710938 30.369141 L 254.236328 30.369141 L 254.236328 22.355469 Q 254.236328 20.142578 252.646484 18.552734 Q 252.410156 18.316406 252.141602 18.123047 Q 251.873047 17.929688 251.507812 17.779297 Q 252.066406 17.414062 252.646484 16.898438 Q 254.236328 15.244141 254.236328 13.095703 L 254.236328 5.189453 L 252.710938 5.189453 L 252.710938 13.095703 Q 252.710938 14.707031 251.572266 15.802734 Q 250.433594 16.941406 248.800781 16.941406 L 239.992188 16.941406 Q 238.337891 16.941406 237.263672 15.802734 Q 236.125000 14.728516 236.125000 13.095703 L 236.125000 5.189453 L 234.578125 5.189453 L 234.578125 13.095703 Q 234.578125 15.287109 236.189453 16.898438 Q 236.425781 17.156250 236.705078 17.392578 Q 236.984375 17.628906 237.263672 17.822266 Q 236.919922 17.951172 236.672852 18.133789 Q 236.425781 18.316406 236.189453 18.552734 Q 234.578125 20.164062 234.578125 22.355469 L 234.578125 30.369141 Z M 256.449219 22.462891 Q 256.449219 19.884766 254.880859 17.843750 Q 256.449219 15.759766 256.449219 13.203125 L 256.449219 5.189453 L 254.923828 5.189453 L 254.923828 13.203125 Q 254.923828 15.716797 252.796875 17.822266 Q 254.923828 19.970703 254.923828 22.462891 L 254.923828 30.369141 L 256.449219 30.369141 Z M 232.343750 5.189453 L 232.343750 13.203125 Q 232.343750 14.470703 232.751953 15.630859 Q 233.160156 16.791016 233.933594 17.843750 Q 232.343750 19.927734 232.343750 22.462891 L 232.343750 30.369141 L 233.890625 30.369141 L 233.890625 22.462891 Q 233.890625 19.970703 236.017578 17.843750 Q 235.974609 17.822266 235.641602 17.478516 Q 235.308594 17.134766 234.814453 16.640625 Q 233.890625 15.716797 233.890625 13.203125 L 233.890625 5.189453 Z M 248.800781 16.382812 Q 250.175781 16.382812 251.056641 15.437500 Q 252.001953 14.556641 252.001953 13.203125 L 252.001953 5.189453 L 250.476562 5.189453 L 250.476562 13.203125 Q 250.476562 13.869141 249.982422 14.363281 Q 249.423828 14.857422 248.800781 14.857422 L 239.992188 14.857422 Q 239.369141 14.857422 238.832031 14.363281 Q 238.337891 13.869141 238.337891 13.203125 L 238.337891 5.189453 L 236.791016 5.189453 L 236.791016 13.203125 Q 236.791016 14.449219 237.736328 15.437500 Q 238.724609 16.382812 239.992188 16.382812 Z M 236.791016 30.369141 L 238.337891 30.369141 L 238.337891 22.462891 Q 238.337891 21.796875 238.832031 21.302734 Q 239.347656 20.830078 239.992188 20.830078 L 248.800781 20.830078 Q 249.402344 20.830078 249.982422 21.302734 Q 250.476562 21.796875 250.476562 22.462891 L 250.476562 30.369141 L 252.001953 30.369141 L 252.001953 22.462891 Q 252.001953 21.173828 251.056641 20.228516 Q 250.132812 19.304688 248.800781 19.304688 L 239.992188 19.304688 Q 238.703125 19.304688 237.736328 20.228516 Q 236.791016 21.281250 236.791016 22.462891 Z M 275.097656 25.921875 Q 276.472656 25.921875 277.353516 24.976562 Q 278.298828 24.117188 278.298828 22.742188 L 278.255859 12.837891 Q 278.255859 11.505859 277.332031 10.582031 Q 276.386719 9.636719 275.076172 9.636719 L 266.052734 9.636719 L 266.052734 11.183594 L 275.076172 11.183594 Q 275.763672 11.183594 276.236328 11.656250 Q 276.730469 12.150391 276.730469 12.837891 L 276.773438 22.742188 Q 276.773438 23.365234 276.279297 23.923828 Q 275.720703 24.417969 275.097656 24.417969 L 266.289062 24.417969 Q 265.623047 24.417969 265.128906 23.923828 Q 264.634766 23.386719 264.634766 22.742188 L 264.634766 1.000000 L 263.087891 1.000000 L 263.087891 22.742188 Q 263.087891 24.031250 264.033203 24.976562 Q 264.978516 25.921875 266.289062 25.921875 Z M 266.289062 26.523438 Q 264.699219 26.523438 263.560547 25.384766 Q 262.421875 24.246094 262.421875 22.634766 L 262.421875 1.000000 L 260.875000 1.000000 L 260.875000 22.634766 Q 260.875000 24.847656 262.486328 26.458984 Q 264.076172 28.048828 266.289062 28.048828 L 275.097656 28.048828 Q 277.353516 28.048828 278.943359 26.458984 Q 280.533203 24.804688 280.533203 22.634766 L 280.533203 12.837891 Q 280.533203 10.603516 278.943359 9.013672 Q 277.332031 7.402344 275.097656 7.402344 L 266.074219 7.402344 L 266.074219 8.949219 L 275.097656 8.949219 Q 276.708984 8.949219 277.869141 10.087891 Q 279.007812 11.269531 279.007812 12.837891 L 279.007812 22.634766 Q 279.007812 24.203125 277.869141 25.384766 Q 276.666016 26.523438 275.097656 26.523438 Z M 275.097656 30.369141 Q 278.298828 30.369141 280.511719 28.134766 Q 282.746094 25.878906 282.746094 22.742188 L 282.746094 12.837891 Q 282.746094 9.658203 280.511719 7.423828 Q 278.255859 5.189453 275.097656 5.189453 L 266.074219 5.189453 L 266.074219 6.736328 L 275.097656 6.736328 Q 277.654297 6.736328 279.416016 8.519531 Q 281.220703 10.324219 281.220703 12.837891 L 281.220703 22.742188 Q 281.220703 25.234375 279.416016 27.039063 Q 277.611328 28.843750 275.097656 28.843750 L 266.289062 28.843750 Q 263.775391 28.843750 261.970703 27.039063 Q 260.187500 25.255859 260.187500 22.742188 L 260.187500 1.000000 L 258.640625 1.000000 L 258.640625 22.742188 Q 258.640625 25.878906 260.896484 28.134766 Q 263.130859 30.369141 266.289062 30.369141 Z M 292.607422 26.630859 Q 290.974609 26.630859 289.878906 25.492188 Q 288.761719 24.375000 288.761719 22.742188 L 288.718750 12.837891 Q 288.718750 11.226563 289.857422 10.087891 Q 290.974609 8.949219 292.585938 8.949219 L 301.394531 8.949219 Q 303.005859 8.949219 304.166016 10.087891 Q 305.304688 11.269531 305.304688 13.052734 L 306.830078 13.052734 Q 306.830078 10.603516 305.240234 9.013672 Q 303.628906 7.402344 301.394531 7.402344 L 292.585938 7.402344 Q 290.394531 7.402344 288.783203 9.013672 Q 287.171875 10.625000 287.171875 12.837891 L 287.214844 22.742188 Q 287.214844 24.998047 288.804688 26.587891 Q 290.394531 28.156250 292.607422 28.156250 L 301.437500 28.156250 Q 303.693359 28.156250 305.261719 26.587891 Q 306.851562 24.998047 306.851562 22.742188 L 306.830078 21.710938 Q 306.830078 19.777344 305.455078 18.423828 Q 304.101562 17.070313 302.167969 17.070313 L 292.371094 17.070313 L 292.371094 18.617188 L 302.167969 18.617188 Q 303.435547 18.617188 304.359375 19.498047 Q 305.304688 20.400391 305.304688 21.710938 L 305.326172 22.742188 Q 305.326172 24.310547 304.187500 25.492188 Q 303.005859 26.630859 301.437500 26.630859 Z M 309.042969 21.732422 Q 309.042969 18.875000 307.023438 16.855469 Q 304.960938 14.857422 302.146484 14.857422 L 292.371094 14.857422 L 292.371094 16.382812 L 302.146484 16.382812 Q 304.337891 16.382812 305.927734 17.929688 Q 307.517578 19.476562 307.517578 21.732422 L 307.517578 22.742188 Q 307.517578 25.234375 305.712891 27.039063 Q 303.908203 28.843750 301.394531 28.843750 L 292.585938 28.843750 Q 290.072266 28.843750 288.267578 27.039063 Q 287.386719 26.158203 286.957031 25.051758 Q 286.527344 23.945312 286.484375 22.742188 Q 286.484375 21.603516 286.495117 20.335938 Q 286.505859 19.068359 286.516602 17.779297 Q 286.527344 16.490234 286.538086 15.222656 Q 286.548828 13.955078 286.548828 12.837891 Q 286.548828 10.302734 288.332031 8.519531 Q 290.115234 6.736328 292.650391 6.736328 L 301.480469 6.736328 Q 303.994141 6.736328 305.777344 8.519531 Q 307.582031 10.324219 307.582031 13.052734 L 309.107422 13.052734 Q 309.107422 9.701172 306.851562 7.445312 Q 304.617188 5.189453 301.480469 5.189453 L 292.650391 5.189453 Q 289.513672 5.189453 287.257812 7.445312 Q 285.023438 9.679688 285.023438 12.837891 Q 285.001953 15.308594 284.980469 17.790039 Q 284.958984 20.271484 284.937500 22.742188 Q 284.937500 25.878906 287.193359 28.134766 Q 289.427734 30.369141 292.585938 30.369141 L 301.394531 30.369141 Q 304.595703 30.369141 306.808594 28.134766 Q 309.042969 25.878906 309.042969 22.742188 Z M 304.595703 21.732422 Q 304.595703 19.304688 302.146484 19.304688 L 292.371094 19.304688 L 292.371094 20.830078 L 302.146484 20.830078 Q 303.070312 20.830078 303.070312 21.732422 L 303.070312 22.742188 Q 303.070312 23.365234 302.576172 23.923828 Q 302.017578 24.417969 301.394531 24.417969 L 292.585938 24.417969 Q 291.919922 24.417969 291.425781 23.923828 Q 290.931641 23.386719 290.931641 22.742188 L 290.974609 12.837891 Q 290.974609 12.128906 291.447266 11.656250 Q 291.919922 11.183594 292.607422 11.183594 L 301.437500 11.183594 Q 302.125000 11.183594 302.597656 11.656250 Q 303.091797 12.150391 303.091797 13.052734 L 304.617188 13.052734 Q 304.617188 11.484375 303.671875 10.582031 Q 302.791016 9.636719 301.437500 9.636719 L 292.607422 9.636719 Q 291.404297 9.636719 290.351562 10.582031 Q 289.427734 11.548828 289.427734 12.837891 L 289.384766 22.742188 Q 289.384766 24.031250 290.330078 24.976562 Q 291.275391 25.921875 292.585938 25.921875 L 301.394531 25.921875 Q 302.769531 25.921875 303.650391 24.976562 Q 304.595703 24.117188 304.595703 22.742188 Z M 327.927734 26.630859 L 318.904297 26.630859 Q 317.271484 26.630859 316.175781 25.492188 Q 315.037109 24.310547 315.037109 22.742188 L 315.080078 5.189453 L 313.533203 5.189453 L 313.490234 22.742188 Q 313.490234 24.976562 315.101562 26.587891 Q 316.691406 28.156250 318.904297 28.156250 L 327.927734 28.156250 Z M 327.927734 30.369141 L 327.927734 28.843750 L 318.904297 28.843750 Q 316.390625 28.843750 314.585938 27.039063 Q 312.802734 25.255859 312.802734 22.742188 L 312.845703 5.189453 L 311.298828 5.189453 L 311.255859 22.742188 Q 311.255859 24.332031 311.825195 25.664062 Q 312.394531 26.996094 313.511719 28.134766 Q 315.746094 30.369141 318.904297 30.369141 Z M 327.927734 25.921875 L 327.927734 24.417969 L 318.904297 24.417969 Q 318.238281 24.417969 317.744141 23.923828 Q 317.250000 23.386719 317.250000 22.742188 L 317.292969 5.189453 L 315.746094 5.189453 L 315.703125 22.742188 Q 315.703125 24.031250 316.648438 24.976562 Q 317.593750 25.921875 318.904297 25.921875 Z M 339.486328 28.156250 L 339.486328 26.630859 L 333.707031 26.630859 L 333.707031 12.837891 Q 333.707031 11.269531 334.845703 10.087891 Q 335.984375 8.949219 337.595703 8.949219 L 339.486328 8.949219 L 339.486328 7.402344 L 337.595703 7.402344 Q 335.382812 7.402344 333.771484 9.013672 Q 332.181641 10.603516 332.181641 12.837891 L 332.181641 34.816406 L 333.707031 34.816406 L 333.707031 28.156250 Z M 331.472656 34.816406 L 331.515625 12.816406 Q 331.515625 10.259766 333.320312 8.519531 Q 335.125000 6.714844 337.617188 6.714844 L 339.507812 6.714844 L 339.507812 5.189453 L 337.617188 5.189453 Q 334.458984 5.189453 332.246094 7.423828 Q 329.990234 9.679688 329.990234 12.816406 L 329.947266 34.816406 Z M 334.394531 34.816406 L 335.919922 34.816406 L 335.919922 30.369141 L 339.486328 30.369141 L 339.486328 28.843750 L 334.394531 28.843750 Z M 334.394531 25.921875 L 339.486328 25.921875 L 339.486328 24.417969 L 335.919922 24.417969 L 335.919922 12.837891 Q 335.919922 12.128906 336.435547 11.656250 Q 336.908203 11.183594 337.595703 11.183594 L 339.486328 11.183594 L 339.486328 9.636719 L 337.595703 9.636719 Q 336.285156 9.636719 335.339844 10.582031 Q 334.394531 11.527344 334.394531 12.837891 Z M 359.251953 17.886719 Q 361.056641 17.693359 362.195312 16.361328 L 362.173828 16.361328 Q 363.376953 15.072266 363.376953 13.267578 L 363.376953 12.837891 Q 363.376953 10.603516 361.787109 9.013672 Q 360.175781 7.402344 357.941406 7.402344 L 349.132812 7.402344 Q 346.941406 7.402344 345.330078 9.013672 Q 343.718750 10.625000 343.718750 12.837891 L 343.718750 13.138672 L 345.265625 13.138672 L 345.265625 12.837891 Q 345.265625 11.226563 346.404297 10.087891 Q 347.521484 8.949219 349.132812 8.949219 L 357.941406 8.949219 Q 359.552734 8.949219 360.712891 10.087891 Q 361.851562 11.269531 361.851562 12.837891 L 361.851562 13.310547 Q 361.851562 14.707031 361.131836 15.469727 Q 360.412109 16.232422 359.080078 16.425781 Q 356.308594 16.748047 353.451172 17.102539 Q 350.593750 17.457031 347.822266 17.779297 Q 346.941406 17.886719 346.178711 18.262695 Q 345.416016 18.638672 344.857422 19.283203 Q 343.718750 20.615234 343.718750 22.398438 L 343.718750 22.634766 Q 343.718750 24.847656 345.330078 26.458984 Q 346.919922 28.048828 349.132812 28.048828 L 357.941406 28.048828 Q 360.197266 28.048828 361.787109 26.458984 Q 363.312500 24.933594 363.355469 22.527344 L 361.851562 22.527344 Q 361.787109 24.181641 360.712891 25.384766 Q 359.509766 26.523438 357.941406 26.523438 L 349.132812 26.523438 Q 347.542969 26.523438 346.404297 25.384766 Q 345.265625 24.246094 345.265625 22.634766 L 345.265625 22.355469 Q 345.265625 19.583984 348.015625 19.261719 Z M 357.941406 30.369141 Q 361.142578 30.369141 363.355469 28.134766 Q 365.589844 25.878906 365.589844 22.527344 L 364.064453 22.527344 Q 364.064453 25.234375 362.259766 27.039063 Q 360.455078 28.843750 357.941406 28.843750 L 349.132812 28.843750 Q 346.619141 28.843750 344.814453 27.039063 Q 343.031250 25.255859 343.031250 22.742188 L 343.031250 22.441406 Q 343.031250 20.421875 344.363281 18.896484 L 344.341797 18.896484 Q 345.029297 18.144531 345.899414 17.714844 Q 346.769531 17.285156 347.736328 17.134766 Q 350.486328 16.812500 353.354492 16.458008 Q 356.222656 16.103516 358.972656 15.781250 Q 360.068359 15.630859 360.605469 15.018555 Q 361.142578 14.406250 361.142578 13.375000 L 361.142578 12.923828 Q 361.142578 11.613281 360.197266 10.689453 Q 359.273438 9.765625 357.941406 9.765625 L 349.132812 9.765625 Q 347.843750 9.765625 346.876953 10.689453 Q 345.931641 11.699219 345.931641 13.138672 L 347.478516 13.138672 Q 347.478516 12.257812 347.972656 11.763672 Q 348.466797 11.269531 349.132812 11.269531 L 357.941406 11.269531 Q 358.564453 11.269531 359.123047 11.763672 Q 359.617188 12.257812 359.617188 12.923828 L 359.617188 13.417969 Q 359.617188 14.191406 358.800781 14.298828 Q 356.050781 14.621094 353.182617 14.986328 Q 350.314453 15.351562 347.564453 15.652344 Q 346.253906 15.802734 345.168945 16.361328 Q 344.083984 16.919922 343.224609 17.886719 Q 341.484375 19.884766 341.484375 22.484375 L 341.484375 22.742188 Q 341.484375 25.878906 343.740234 28.134766 Q 345.974609 30.369141 349.132812 30.369141 Z M 365.589844 12.923828 Q 365.589844 9.765625 363.355469 7.552734 Q 361.121094 5.296875 357.941406 5.296875 L 349.132812 5.296875 Q 345.996094 5.296875 343.740234 7.552734 Q 341.484375 9.765625 341.484375 13.138672 L 343.031250 13.138672 Q 343.031250 10.410156 344.814453 8.626953 Q 346.597656 6.843750 349.132812 6.843750 L 357.941406 6.843750 Q 360.476562 6.843750 362.259766 8.626953 Q 364.064453 10.431641 364.064453 12.923828 L 364.064453 13.224609 Q 364.064453 15.222656 362.689453 16.748047 Q 361.400391 18.251953 359.359375 18.552734 Q 356.523438 18.875000 353.730469 19.218750 Q 350.937500 19.562500 348.101562 19.906250 Q 345.931641 20.164062 345.931641 22.312500 L 345.931641 22.742188 Q 345.931641 24.031250 346.876953 24.976562 Q 347.822266 25.921875 349.132812 25.921875 L 357.941406 25.921875 Q 359.316406 25.921875 360.197266 24.976562 Q 361.142578 24.117188 361.142578 22.527344 L 359.617188 22.527344 Q 359.617188 23.365234 359.123047 23.923828 Q 358.564453 24.417969 357.941406 24.417969 L 349.132812 24.417969 Q 348.466797 24.417969 347.972656 23.923828 Q 347.478516 23.386719 347.478516 22.742188 L 347.478516 22.269531 Q 347.478516 21.453125 348.273438 21.367188 L 359.531250 20.035156 Q 362.087891 19.712891 363.849609 17.757812 Q 365.589844 15.781250 365.589844 13.181641 Z M 401.253906 30.519531 L 401.253906 12.880859 Q 401.253906 9.701172 398.998047 7.445312 Q 396.677734 5.189453 393.562500 5.189453 L 384.710938 5.189453 Q 381.531250 5.189453 379.275391 7.445312 Q 377.019531 9.701172 377.019531 12.880859 L 377.019531 30.519531 L 378.566406 30.519531 L 378.566406 12.880859 Q 378.566406 10.324219 380.349609 8.541016 Q 382.111328 6.736328 384.710938 6.736328 L 393.562500 6.736328 Q 396.119141 6.736328 397.902344 8.541016 Q 399.707031 10.345703 399.707031 12.880859 L 399.707031 30.519531 Z M 380.800781 30.519531 L 380.800781 12.880859 Q 380.800781 11.291016 381.939453 10.109375 Q 383.078125 8.970703 384.710938 8.970703 L 393.562500 8.970703 Q 395.195312 8.970703 396.333984 10.109375 Q 397.472656 11.248047 397.472656 12.880859 L 397.472656 30.519531 L 399.019531 30.519531 L 399.019531 12.880859 Q 399.019531 10.625000 397.408203 9.035156 Q 395.818359 7.423828 393.562500 7.423828 L 384.710938 7.423828 Q 382.455078 7.423828 380.865234 9.035156 Q 379.253906 10.646484 379.253906 12.880859 L 379.253906 30.519531 Z M 381.488281 30.519531 L 383.035156 30.519531 L 383.035156 12.880859 Q 383.035156 12.193359 383.529297 11.699219 Q 384.023438 11.205078 384.710938 11.205078 L 393.562500 11.205078 Q 394.185547 11.205078 394.744141 11.699219 Q 395.238281 12.193359 395.238281 12.880859 L 395.238281 30.519531 L 396.785156 30.519531 L 396.785156 12.880859 Q 396.785156 11.505859 395.818359 10.603516 Q 394.937500 9.658203 393.562500 9.658203 L 384.710938 9.658203 Q 384.023438 9.658203 383.475586 9.894531 Q 382.927734 10.130859 382.433594 10.603516 Q 381.488281 11.591797 381.488281 12.880859 Z M 419.859375 19.240234 Q 421.234375 19.240234 422.115234 18.273438 Q 423.082031 17.392578 423.082031 16.039062 L 423.103516 5.189453 L 421.556641 5.189453 L 421.535156 16.039062 Q 421.535156 16.705078 421.041016 17.199219 Q 420.525391 17.714844 419.859375 17.714844 L 409.332031 17.714844 L 409.332031 5.189453 L 407.785156 5.189453 L 407.785156 19.240234 Z M 424.607422 30.519531 L 414.617188 21.345703 L 419.859375 21.345703 Q 422.115234 21.345703 423.705078 19.777344 Q 425.316406 18.101563 425.316406 15.931641 L 425.337891 5.189453 L 423.791016 5.189453 L 423.769531 15.931641 Q 423.769531 17.564453 422.630859 18.681641 Q 421.449219 19.820313 419.859375 19.820313 L 407.097656 19.820313 L 407.097656 5.189453 L 405.550781 5.189453 L 405.550781 34.880859 L 407.097656 34.880859 L 407.097656 21.345703 L 412.404297 21.345703 Q 414.896484 23.644531 417.388672 25.943359 Q 419.880859 28.242188 422.416016 30.519531 Z M 403.316406 5.189453 L 403.316406 34.859375 L 404.863281 34.859375 L 404.863281 5.189453 Z M 409.332031 23.708984 L 411.824219 23.708984 Q 413.671875 25.406250 415.541016 27.114258 Q 417.410156 28.822266 419.236328 30.519531 L 421.492188 30.519531 L 412.361328 22.162109 L 407.785156 22.162109 L 407.785156 34.859375 L 409.332031 34.859375 Z M 420.375000 23.687500 Q 423.253906 23.515625 425.294922 21.453125 Q 427.550781 19.132812 427.550781 16.039062 L 427.572266 5.189453 L 426.025391 5.189453 L 426.003906 16.039062 Q 426.003906 18.552734 424.199219 20.357422 Q 422.416016 22.162109 419.859375 22.162109 L 416.443359 22.162109 L 425.574219 30.519531 L 427.787109 30.519531 Z" transform="scale(1.000000,1.000000) translate(10.610001,7.010010)" fill="#fffefe" opacity="1.000000"></path>
    </g>
</svg>